ISO-10303-21;
HEADER;
FILE_DESCRIPTION(('STEP AP242'),'1');
FILE_NAME('d2f-fl-a1.stp','2026-02-20T05:38:30',('TraceParts'),('TraceParts S.A.S.'),'Spatial InterOp 3D',' ',' ');
FILE_SCHEMA(('AP242_MANAGED_MODEL_BASED_3D_ENGINEERING_MIM_LF  {1 0 10303 442 1 1 4}'));
ENDSEC;
DATA;
#1=MECHANICAL_DESIGN_GEOMETRIC_PRESENTATION_REPRESENTATION(' ',(#10,#11,#12,#13,#14,#15,#16,#17,#18,#19,#20,#21,#22,#23,#24,#25,#26,#27,#28,#29,#30,#31,#32,#33,#34,#35,#36,#37,#38,#39,#40,#41,#42,#43,#44,#45,#46,#47,#48,#49,#50,#51,#52,#53,#54),#6);
#2=PRODUCT_DEFINITION_CONTEXT('',#55,'design');
#3=APPLICATION_PROTOCOL_DEFINITION('INTERNATIONAL STANDARD','ap242_managed_model_based_3d_engineering',2014,#55);
#4=PRODUCT_CATEGORY_RELATIONSHIP('NONE','NONE',#56,#57);
#5=SHAPE_DEFINITION_REPRESENTATION(#58,#59);
#6= (GEOMETRIC_REPRESENTATION_CONTEXT(3)GLOBAL_UNCERTAINTY_ASSIGNED_CONTEXT((#62))GLOBAL_UNIT_ASSIGNED_CONTEXT((#64,#65,#66))REPRESENTATION_CONTEXT('NONE','WORKSPACE'));
#10=STYLED_ITEM('',(#68),#69);
#11=STYLED_ITEM('',(#70),#71);
#12=STYLED_ITEM('',(#72),#73);
#13=STYLED_ITEM('',(#74),#75);
#14=STYLED_ITEM('',(#76),#77);
#15=STYLED_ITEM('',(#78),#79);
#16=STYLED_ITEM('',(#80),#81);
#17=STYLED_ITEM('',(#82),#83);
#18=STYLED_ITEM('',(#84),#85);
#19=STYLED_ITEM('',(#86),#87);
#20=STYLED_ITEM('',(#88),#89);
#21=STYLED_ITEM('',(#90),#91);
#22=STYLED_ITEM('',(#92),#93);
#23=STYLED_ITEM('',(#94),#95);
#24=STYLED_ITEM('',(#96),#97);
#25=STYLED_ITEM('',(#98),#99);
#26=STYLED_ITEM('',(#100),#101);
#27=STYLED_ITEM('',(#102),#103);
#28=STYLED_ITEM('',(#104),#105);
#29=STYLED_ITEM('',(#106),#107);
#30=STYLED_ITEM('',(#108),#109);
#31=STYLED_ITEM('',(#110),#111);
#32=STYLED_ITEM('',(#112),#113);
#33=STYLED_ITEM('',(#114),#115);
#34=STYLED_ITEM('',(#116),#117);
#35=STYLED_ITEM('',(#118),#119);
#36=STYLED_ITEM('',(#120),#121);
#37=STYLED_ITEM('',(#122),#123);
#38=STYLED_ITEM('',(#124),#125);
#39=STYLED_ITEM('',(#126),#127);
#40=STYLED_ITEM('',(#128),#129);
#41=STYLED_ITEM('',(#130),#131);
#42=STYLED_ITEM('',(#132),#133);
#43=STYLED_ITEM('',(#134),#135);
#44=STYLED_ITEM('',(#136),#137);
#45=STYLED_ITEM('',(#138),#139);
#46=STYLED_ITEM('',(#140),#141);
#47=STYLED_ITEM('',(#142),#143);
#48=STYLED_ITEM('',(#144),#145);
#49=STYLED_ITEM('',(#146),#147);
#50=STYLED_ITEM('',(#148),#149);
#51=STYLED_ITEM('',(#150),#151);
#52=STYLED_ITEM('',(#152),#153);
#53=STYLED_ITEM('',(#154),#155);
#54=STYLED_ITEM('',(#156),#157);
#55=APPLICATION_CONTEXT('managed model based 3d engineering');
#56=PRODUCT_CATEGORY('part','NONE');
#57=PRODUCT_RELATED_PRODUCT_CATEGORY('detail',' ',(#158));
#58=PRODUCT_DEFINITION_SHAPE('NONE','NONE',#159);
#59=ADVANCED_BREP_SHAPE_REPRESENTATION('1',(#160,#161),#6);
#62=UNCERTAINTY_MEASURE_WITH_UNIT(LENGTH_MEASURE(1.0E-06),#64,'','');
#64= (CONVERSION_BASED_UNIT('MILLIMETRE',#164)LENGTH_UNIT()NAMED_UNIT(#167));
#65= (NAMED_UNIT(#169)PLANE_ANGLE_UNIT()SI_UNIT($,.RADIAN.));
#66= (NAMED_UNIT(#169)SOLID_ANGLE_UNIT()SI_UNIT($,.STERADIAN.));
#68=PRESENTATION_STYLE_ASSIGNMENT((#175));
#69=ADVANCED_FACE('',(#176),#177,.F.);
#70=PRESENTATION_STYLE_ASSIGNMENT((#178));
#71=ADVANCED_FACE('',(#179),#180,.F.);
#72=PRESENTATION_STYLE_ASSIGNMENT((#181));
#73=ADVANCED_FACE('',(#182),#183,.F.);
#74=PRESENTATION_STYLE_ASSIGNMENT((#184));
#75=ADVANCED_FACE('',(#185),#186,.T.);
#76=PRESENTATION_STYLE_ASSIGNMENT((#187));
#77=ADVANCED_FACE('',(#188),#189,.T.);
#78=PRESENTATION_STYLE_ASSIGNMENT((#190));
#79=ADVANCED_FACE('',(#191),#192,.T.);
#80=PRESENTATION_STYLE_ASSIGNMENT((#193));
#81=ADVANCED_FACE('',(#194),#195,.F.);
#82=PRESENTATION_STYLE_ASSIGNMENT((#196));
#83=ADVANCED_FACE('',(#197),#198,.T.);
#84=PRESENTATION_STYLE_ASSIGNMENT((#199));
#85=ADVANCED_FACE('',(#200),#201,.T.);
#86=PRESENTATION_STYLE_ASSIGNMENT((#202));
#87=ADVANCED_FACE('',(#203),#204,.T.);
#88=PRESENTATION_STYLE_ASSIGNMENT((#205));
#89=ADVANCED_FACE('',(#206),#207,.T.);
#90=PRESENTATION_STYLE_ASSIGNMENT((#208));
#91=ADVANCED_FACE('',(#209),#210,.T.);
#92=PRESENTATION_STYLE_ASSIGNMENT((#211));
#93=ADVANCED_FACE('',(#212),#213,.T.);
#94=PRESENTATION_STYLE_ASSIGNMENT((#214));
#95=ADVANCED_FACE('',(#215),#216,.F.);
#96=PRESENTATION_STYLE_ASSIGNMENT((#217));
#97=ADVANCED_FACE('',(#218),#219,.T.);
#98=PRESENTATION_STYLE_ASSIGNMENT((#220));
#99=ADVANCED_FACE('',(#221),#222,.T.);
#100=PRESENTATION_STYLE_ASSIGNMENT((#223));
#101=ADVANCED_FACE('',(#224),#225,.T.);
#102=PRESENTATION_STYLE_ASSIGNMENT((#226));
#103=ADVANCED_FACE('',(#227),#228,.T.);
#104=PRESENTATION_STYLE_ASSIGNMENT((#229));
#105=ADVANCED_FACE('',(#230),#231,.T.);
#106=PRESENTATION_STYLE_ASSIGNMENT((#232));
#107=ADVANCED_FACE('',(#233),#234,.T.);
#108=PRESENTATION_STYLE_ASSIGNMENT((#235));
#109=ADVANCED_FACE('',(#236),#237,.F.);
#110=PRESENTATION_STYLE_ASSIGNMENT((#238));
#111=ADVANCED_FACE('',(#239),#240,.T.);
#112=PRESENTATION_STYLE_ASSIGNMENT((#241));
#113=ADVANCED_FACE('',(#242),#243,.T.);
#114=PRESENTATION_STYLE_ASSIGNMENT((#244));
#115=ADVANCED_FACE('',(#245),#246,.T.);
#116=PRESENTATION_STYLE_ASSIGNMENT((#247));
#117=ADVANCED_FACE('',(#248),#249,.T.);
#118=PRESENTATION_STYLE_ASSIGNMENT((#250));
#119=ADVANCED_FACE('',(#251),#252,.T.);
#120=PRESENTATION_STYLE_ASSIGNMENT((#253));
#121=ADVANCED_FACE('',(#254),#255,.T.);
#122=PRESENTATION_STYLE_ASSIGNMENT((#256));
#123=ADVANCED_FACE('',(#257),#258,.F.);
#124=PRESENTATION_STYLE_ASSIGNMENT((#259));
#125=ADVANCED_FACE('',(#260),#261,.T.);
#126=PRESENTATION_STYLE_ASSIGNMENT((#262));
#127=ADVANCED_FACE('',(#263),#264,.T.);
#128=PRESENTATION_STYLE_ASSIGNMENT((#265));
#129=ADVANCED_FACE('',(#266),#267,.T.);
#130=PRESENTATION_STYLE_ASSIGNMENT((#268));
#131=ADVANCED_FACE('',(#269),#270,.T.);
#132=PRESENTATION_STYLE_ASSIGNMENT((#271));
#133=ADVANCED_FACE('',(#272),#273,.T.);
#134=PRESENTATION_STYLE_ASSIGNMENT((#274));
#135=ADVANCED_FACE('',(#275),#276,.T.);
#136=PRESENTATION_STYLE_ASSIGNMENT((#277));
#137=ADVANCED_FACE('',(#278),#279,.T.);
#138=PRESENTATION_STYLE_ASSIGNMENT((#280));
#139=ADVANCED_FACE('',(#281),#282,.F.);
#140=PRESENTATION_STYLE_ASSIGNMENT((#283));
#141=ADVANCED_FACE('',(#284),#285,.T.);
#142=PRESENTATION_STYLE_ASSIGNMENT((#286));
#143=ADVANCED_FACE('',(#287),#288,.F.);
#144=PRESENTATION_STYLE_ASSIGNMENT((#289));
#145=ADVANCED_FACE('',(#290),#291,.F.);
#146=PRESENTATION_STYLE_ASSIGNMENT((#292));
#147=ADVANCED_FACE('',(#293,#294,#295),#296,.T.);
#148=PRESENTATION_STYLE_ASSIGNMENT((#297));
#149=ADVANCED_FACE('',(#298,#299,#300),#301,.F.);
#150=PRESENTATION_STYLE_ASSIGNMENT((#302));
#151=ADVANCED_FACE('',(#303,#304,#305,#306),#307,.F.);
#152=PRESENTATION_STYLE_ASSIGNMENT((#308));
#153=ADVANCED_FACE('',(#309),#310,.F.);
#154=PRESENTATION_STYLE_ASSIGNMENT((#311));
#155=ADVANCED_FACE('',(#312,#313,#314),#315,.F.);
#156=PRESENTATION_STYLE_ASSIGNMENT((#316));
#157=ADVANCED_FACE('',(#317),#318,.F.);
#158=PRODUCT('1','','PART--DESC',(#319));
#159=PRODUCT_DEFINITION('','NONE',#320,#2);
#160=MANIFOLD_SOLID_BREP('1',#321);
#161=AXIS2_PLACEMENT_3D('',#322,#323,#324);
#164=LENGTH_MEASURE_WITH_UNIT(LENGTH_MEASURE(1.0),#325);
#167=DIMENSIONAL_EXPONENTS(1.0,0.0,0.0,0.0,0.0,0.0,0.0);
#169=DIMENSIONAL_EXPONENTS(0.0,0.0,0.0,0.0,0.0,0.0,0.0);
#175=SURFACE_STYLE_USAGE(.BOTH.,#326);
#176=FACE_OUTER_BOUND('',#327,.T.);
#177=CYLINDRICAL_SURFACE('',#328,1.0);
#178=SURFACE_STYLE_USAGE(.BOTH.,#329);
#179=FACE_OUTER_BOUND('',#330,.T.);
#180=CYLINDRICAL_SURFACE('',#331,1.1);
#181=SURFACE_STYLE_USAGE(.BOTH.,#332);
#182=FACE_OUTER_BOUND('',#333,.T.);
#183=CYLINDRICAL_SURFACE('',#334,1.1);
#184=SURFACE_STYLE_USAGE(.BOTH.,#335);
#185=FACE_OUTER_BOUND('',#336,.T.);
#186=PLANE('',#337);
#187=SURFACE_STYLE_USAGE(.BOTH.,#338);
#188=FACE_OUTER_BOUND('',#339,.T.);
#189=CYLINDRICAL_SURFACE('',#340,0.61);
#190=SURFACE_STYLE_USAGE(.BOTH.,#341);
#191=FACE_OUTER_BOUND('',#342,.T.);
#192=PLANE('',#343);
#193=SURFACE_STYLE_USAGE(.BOTH.,#344);
#194=FACE_OUTER_BOUND('',#345,.T.);
#195=PLANE('',#346);
#196=SURFACE_STYLE_USAGE(.BOTH.,#347);
#197=FACE_OUTER_BOUND('',#348,.T.);
#198=PLANE('',#349);
#199=SURFACE_STYLE_USAGE(.BOTH.,#350);
#200=FACE_OUTER_BOUND('',#351,.T.);
#201=PLANE('',#352);
#202=SURFACE_STYLE_USAGE(.BOTH.,#353);
#203=FACE_OUTER_BOUND('',#354,.T.);
#204=PLANE('',#355);
#205=SURFACE_STYLE_USAGE(.BOTH.,#356);
#206=FACE_OUTER_BOUND('',#357,.T.);
#207=PLANE('',#358);
#208=SURFACE_STYLE_USAGE(.BOTH.,#359);
#209=FACE_OUTER_BOUND('',#360,.T.);
#210=PLANE('',#361);
#211=SURFACE_STYLE_USAGE(.BOTH.,#362);
#212=FACE_OUTER_BOUND('',#363,.T.);
#213=PLANE('',#364);
#214=SURFACE_STYLE_USAGE(.BOTH.,#365);
#215=FACE_OUTER_BOUND('',#366,.T.);
#216=PLANE('',#367);
#217=SURFACE_STYLE_USAGE(.BOTH.,#368);
#218=FACE_OUTER_BOUND('',#369,.T.);
#219=PLANE('',#370);
#220=SURFACE_STYLE_USAGE(.BOTH.,#371);
#221=FACE_OUTER_BOUND('',#372,.T.);
#222=PLANE('',#373);
#223=SURFACE_STYLE_USAGE(.BOTH.,#374);
#224=FACE_OUTER_BOUND('',#375,.T.);
#225=PLANE('',#376);
#226=SURFACE_STYLE_USAGE(.BOTH.,#377);
#227=FACE_OUTER_BOUND('',#378,.T.);
#228=PLANE('',#379);
#229=SURFACE_STYLE_USAGE(.BOTH.,#380);
#230=FACE_OUTER_BOUND('',#381,.T.);
#231=PLANE('',#382);
#232=SURFACE_STYLE_USAGE(.BOTH.,#383);
#233=FACE_OUTER_BOUND('',#384,.T.);
#234=PLANE('',#385);
#235=SURFACE_STYLE_USAGE(.BOTH.,#386);
#236=FACE_OUTER_BOUND('',#387,.T.);
#237=PLANE('',#388);
#238=SURFACE_STYLE_USAGE(.BOTH.,#389);
#239=FACE_OUTER_BOUND('',#390,.T.);
#240=PLANE('',#391);
#241=SURFACE_STYLE_USAGE(.BOTH.,#392);
#242=FACE_OUTER_BOUND('',#393,.T.);
#243=PLANE('',#394);
#244=SURFACE_STYLE_USAGE(.BOTH.,#395);
#245=FACE_OUTER_BOUND('',#396,.T.);
#246=PLANE('',#397);
#247=SURFACE_STYLE_USAGE(.BOTH.,#398);
#248=FACE_OUTER_BOUND('',#399,.T.);
#249=PLANE('',#400);
#250=SURFACE_STYLE_USAGE(.BOTH.,#401);
#251=FACE_OUTER_BOUND('',#402,.T.);
#252=PLANE('',#403);
#253=SURFACE_STYLE_USAGE(.BOTH.,#404);
#254=FACE_OUTER_BOUND('',#405,.T.);
#255=PLANE('',#406);
#256=SURFACE_STYLE_USAGE(.BOTH.,#407);
#257=FACE_OUTER_BOUND('',#408,.T.);
#258=PLANE('',#409);
#259=SURFACE_STYLE_USAGE(.BOTH.,#410);
#260=FACE_OUTER_BOUND('',#411,.T.);
#261=PLANE('',#412);
#262=SURFACE_STYLE_USAGE(.BOTH.,#413);
#263=FACE_OUTER_BOUND('',#414,.T.);
#264=PLANE('',#415);
#265=SURFACE_STYLE_USAGE(.BOTH.,#416);
#266=FACE_OUTER_BOUND('',#417,.T.);
#267=PLANE('',#418);
#268=SURFACE_STYLE_USAGE(.BOTH.,#419);
#269=FACE_OUTER_BOUND('',#420,.T.);
#270=PLANE('',#421);
#271=SURFACE_STYLE_USAGE(.BOTH.,#422);
#272=FACE_OUTER_BOUND('',#423,.T.);
#273=PLANE('',#424);
#274=SURFACE_STYLE_USAGE(.BOTH.,#425);
#275=FACE_OUTER_BOUND('',#426,.T.);
#276=PLANE('',#427);
#277=SURFACE_STYLE_USAGE(.BOTH.,#428);
#278=FACE_OUTER_BOUND('',#429,.T.);
#279=PLANE('',#430);
#280=SURFACE_STYLE_USAGE(.BOTH.,#431);
#281=FACE_OUTER_BOUND('',#432,.T.);
#282=CYLINDRICAL_SURFACE('',#433,1.1);
#283=SURFACE_STYLE_USAGE(.BOTH.,#434);
#284=FACE_OUTER_BOUND('',#435,.T.);
#285=PLANE('',#436);
#286=SURFACE_STYLE_USAGE(.BOTH.,#437);
#287=FACE_OUTER_BOUND('',#438,.T.);
#288=CYLINDRICAL_SURFACE('',#439,1.1);
#289=SURFACE_STYLE_USAGE(.BOTH.,#440);
#290=FACE_OUTER_BOUND('',#441,.T.);
#291=CYLINDRICAL_SURFACE('',#442,1.0);
#292=SURFACE_STYLE_USAGE(.BOTH.,#443);
#293=FACE_BOUND('',#444,.T.);
#294=FACE_BOUND('',#445,.T.);
#295=FACE_OUTER_BOUND('',#446,.T.);
#296=PLANE('',#447);
#297=SURFACE_STYLE_USAGE(.BOTH.,#448);
#298=FACE_BOUND('',#449,.T.);
#299=FACE_BOUND('',#450,.T.);
#300=FACE_OUTER_BOUND('',#451,.T.);
#301=PLANE('',#452);
#302=SURFACE_STYLE_USAGE(.BOTH.,#453);
#303=FACE_BOUND('',#454,.T.);
#304=FACE_BOUND('',#455,.T.);
#305=FACE_BOUND('',#456,.T.);
#306=FACE_OUTER_BOUND('',#457,.T.);
#307=PLANE('',#458);
#308=SURFACE_STYLE_USAGE(.BOTH.,#459);
#309=FACE_OUTER_BOUND('',#460,.T.);
#310=PLANE('',#461);
#311=SURFACE_STYLE_USAGE(.BOTH.,#462);
#312=FACE_BOUND('',#463,.T.);
#313=FACE_BOUND('',#464,.T.);
#314=FACE_OUTER_BOUND('',#465,.T.);
#315=PLANE('',#466);
#316=SURFACE_STYLE_USAGE(.BOTH.,#467);
#317=FACE_OUTER_BOUND('',#468,.T.);
#318=PLANE('',#469);
#319=PRODUCT_CONTEXT('',#55,'mechanical');
#320=PRODUCT_DEFINITION_FORMATION_WITH_SPECIFIED_SOURCE(' ','NONE',#158,.NOT_KNOWN.);
#321=CLOSED_SHELL('',(#69,#71,#73,#75,#77,#79,#81,#83,#85,#87,#89,#91,#93,#95,#97,#99,#101,#103,#105,#107,#109,#111,#113,#115,#117,#119,#121,#123,#125,#127,#129,#131,#133,#135,#137,#139,#141,#143,#145,#147,#149,#151,#153,#155,#157));
#322=CARTESIAN_POINT('',(0.0,0.0,0.0));
#323=DIRECTION('',(0.0,0.0,1.0));
#324=DIRECTION('',(1.0,0.0,0.0));
#325= (NAMED_UNIT(#167)LENGTH_UNIT()SI_UNIT(.MILLI.,.METRE.));
#326=SURFACE_SIDE_STYLE('',(#471));
#327=EDGE_LOOP('',(#472,#473,#474,#475));
#328=AXIS2_PLACEMENT_3D('',#476,#477,#478);
#329=SURFACE_SIDE_STYLE('',(#479));
#330=EDGE_LOOP('',(#480,#481,#482,#483));
#331=AXIS2_PLACEMENT_3D('',#484,#485,#486);
#332=SURFACE_SIDE_STYLE('',(#487));
#333=EDGE_LOOP('',(#488,#489,#490,#491));
#334=AXIS2_PLACEMENT_3D('',#492,#493,#494);
#335=SURFACE_SIDE_STYLE('',(#495));
#336=EDGE_LOOP('',(#496,#497));
#337=AXIS2_PLACEMENT_3D('',#498,#499,#500);
#338=SURFACE_SIDE_STYLE('',(#501));
#339=EDGE_LOOP('',(#502,#503,#504,#505));
#340=AXIS2_PLACEMENT_3D('',#506,#507,#508);
#341=SURFACE_SIDE_STYLE('',(#509));
#342=EDGE_LOOP('',(#510,#511));
#343=AXIS2_PLACEMENT_3D('',#512,#513,#514);
#344=SURFACE_SIDE_STYLE('',(#515));
#345=EDGE_LOOP('',(#516,#517,#518,#519,#520,#521));
#346=AXIS2_PLACEMENT_3D('',#522,#523,#524);
#347=SURFACE_SIDE_STYLE('',(#525));
#348=EDGE_LOOP('',(#526,#527,#528,#529));
#349=AXIS2_PLACEMENT_3D('',#530,#531,#532);
#350=SURFACE_SIDE_STYLE('',(#533));
#351=EDGE_LOOP('',(#534,#535,#536,#537));
#352=AXIS2_PLACEMENT_3D('',#538,#539,#540);
#353=SURFACE_SIDE_STYLE('',(#541));
#354=EDGE_LOOP('',(#542,#543,#544,#545));
#355=AXIS2_PLACEMENT_3D('',#546,#547,#548);
#356=SURFACE_SIDE_STYLE('',(#549));
#357=EDGE_LOOP('',(#550,#551,#552,#553));
#358=AXIS2_PLACEMENT_3D('',#554,#555,#556);
#359=SURFACE_SIDE_STYLE('',(#557));
#360=EDGE_LOOP('',(#558,#559,#560,#561));
#361=AXIS2_PLACEMENT_3D('',#562,#563,#564);
#362=SURFACE_SIDE_STYLE('',(#565));
#363=EDGE_LOOP('',(#566,#567,#568,#569,#570,#571));
#364=AXIS2_PLACEMENT_3D('',#572,#573,#574);
#365=SURFACE_SIDE_STYLE('',(#575));
#366=EDGE_LOOP('',(#576,#577,#578,#579,#580,#581));
#367=AXIS2_PLACEMENT_3D('',#582,#583,#584);
#368=SURFACE_SIDE_STYLE('',(#585));
#369=EDGE_LOOP('',(#586,#587,#588,#589));
#370=AXIS2_PLACEMENT_3D('',#590,#591,#592);
#371=SURFACE_SIDE_STYLE('',(#593));
#372=EDGE_LOOP('',(#594,#595,#596,#597));
#373=AXIS2_PLACEMENT_3D('',#598,#599,#600);
#374=SURFACE_SIDE_STYLE('',(#601));
#375=EDGE_LOOP('',(#602,#603,#604,#605));
#376=AXIS2_PLACEMENT_3D('',#606,#607,#608);
#377=SURFACE_SIDE_STYLE('',(#609));
#378=EDGE_LOOP('',(#610,#611,#612,#613));
#379=AXIS2_PLACEMENT_3D('',#614,#615,#616);
#380=SURFACE_SIDE_STYLE('',(#617));
#381=EDGE_LOOP('',(#618,#619,#620,#621));
#382=AXIS2_PLACEMENT_3D('',#622,#623,#624);
#383=SURFACE_SIDE_STYLE('',(#625));
#384=EDGE_LOOP('',(#626,#627,#628,#629,#630,#631));
#385=AXIS2_PLACEMENT_3D('',#632,#633,#634);
#386=SURFACE_SIDE_STYLE('',(#635));
#387=EDGE_LOOP('',(#636,#637,#638,#639,#640,#641));
#388=AXIS2_PLACEMENT_3D('',#642,#643,#644);
#389=SURFACE_SIDE_STYLE('',(#645));
#390=EDGE_LOOP('',(#646,#647,#648,#649));
#391=AXIS2_PLACEMENT_3D('',#650,#651,#652);
#392=SURFACE_SIDE_STYLE('',(#653));
#393=EDGE_LOOP('',(#654,#655,#656,#657));
#394=AXIS2_PLACEMENT_3D('',#658,#659,#660);
#395=SURFACE_SIDE_STYLE('',(#661));
#396=EDGE_LOOP('',(#662,#663,#664,#665));
#397=AXIS2_PLACEMENT_3D('',#666,#667,#668);
#398=SURFACE_SIDE_STYLE('',(#669));
#399=EDGE_LOOP('',(#670,#671,#672,#673));
#400=AXIS2_PLACEMENT_3D('',#674,#675,#676);
#401=SURFACE_SIDE_STYLE('',(#677));
#402=EDGE_LOOP('',(#678,#679,#680,#681));
#403=AXIS2_PLACEMENT_3D('',#682,#683,#684);
#404=SURFACE_SIDE_STYLE('',(#685));
#405=EDGE_LOOP('',(#686,#687,#688,#689,#690,#691));
#406=AXIS2_PLACEMENT_3D('',#692,#693,#694);
#407=SURFACE_SIDE_STYLE('',(#695));
#408=EDGE_LOOP('',(#696,#697,#698,#699,#700,#701));
#409=AXIS2_PLACEMENT_3D('',#702,#703,#704);
#410=SURFACE_SIDE_STYLE('',(#705));
#411=EDGE_LOOP('',(#706,#707,#708,#709));
#412=AXIS2_PLACEMENT_3D('',#710,#711,#712);
#413=SURFACE_SIDE_STYLE('',(#713));
#414=EDGE_LOOP('',(#714,#715,#716,#717));
#415=AXIS2_PLACEMENT_3D('',#718,#719,#720);
#416=SURFACE_SIDE_STYLE('',(#721));
#417=EDGE_LOOP('',(#722,#723,#724,#725));
#418=AXIS2_PLACEMENT_3D('',#726,#727,#728);
#419=SURFACE_SIDE_STYLE('',(#729));
#420=EDGE_LOOP('',(#730,#731,#732,#733));
#421=AXIS2_PLACEMENT_3D('',#734,#735,#736);
#422=SURFACE_SIDE_STYLE('',(#737));
#423=EDGE_LOOP('',(#738,#739,#740,#741));
#424=AXIS2_PLACEMENT_3D('',#742,#743,#744);
#425=SURFACE_SIDE_STYLE('',(#745));
#426=EDGE_LOOP('',(#746,#747,#748,#749,#750,#751));
#427=AXIS2_PLACEMENT_3D('',#752,#753,#754);
#428=SURFACE_SIDE_STYLE('',(#755));
#429=EDGE_LOOP('',(#756,#757,#758,#759));
#430=AXIS2_PLACEMENT_3D('',#760,#761,#762);
#431=SURFACE_SIDE_STYLE('',(#763));
#432=EDGE_LOOP('',(#764,#765,#766,#767));
#433=AXIS2_PLACEMENT_3D('',#768,#769,#770);
#434=SURFACE_SIDE_STYLE('',(#771));
#435=EDGE_LOOP('',(#772,#773,#774,#775));
#436=AXIS2_PLACEMENT_3D('',#776,#777,#778);
#437=SURFACE_SIDE_STYLE('',(#779));
#438=EDGE_LOOP('',(#780,#781,#782,#783));
#439=AXIS2_PLACEMENT_3D('',#784,#785,#786);
#440=SURFACE_SIDE_STYLE('',(#787));
#441=EDGE_LOOP('',(#788,#789,#790,#791));
#442=AXIS2_PLACEMENT_3D('',#792,#793,#794);
#443=SURFACE_SIDE_STYLE('',(#795));
#444=EDGE_LOOP('',(#796,#797,#798,#799,#800,#801));
#445=EDGE_LOOP('',(#802,#803));
#446=EDGE_LOOP('',(#804,#805,#806,#807));
#447=AXIS2_PLACEMENT_3D('',#808,#809,#810);
#448=SURFACE_SIDE_STYLE('',(#811));
#449=EDGE_LOOP('',(#812,#813,#814,#815,#816,#817));
#450=EDGE_LOOP('',(#818,#819));
#451=EDGE_LOOP('',(#820,#821,#822,#823));
#452=AXIS2_PLACEMENT_3D('',#824,#825,#826);
#453=SURFACE_SIDE_STYLE('',(#827));
#454=EDGE_LOOP('',(#828,#829,#830,#831));
#455=EDGE_LOOP('',(#832,#833,#834,#835));
#456=EDGE_LOOP('',(#836,#837,#838,#839));
#457=EDGE_LOOP('',(#840,#841,#842,#843));
#458=AXIS2_PLACEMENT_3D('',#844,#845,#846);
#459=SURFACE_SIDE_STYLE('',(#847));
#460=EDGE_LOOP('',(#848,#849,#850,#851));
#461=AXIS2_PLACEMENT_3D('',#852,#853,#854);
#462=SURFACE_SIDE_STYLE('',(#855));
#463=EDGE_LOOP('',(#856,#857,#858,#859));
#464=EDGE_LOOP('',(#860,#861,#862,#863));
#465=EDGE_LOOP('',(#864,#865,#866,#867));
#466=AXIS2_PLACEMENT_3D('',#868,#869,#870);
#467=SURFACE_SIDE_STYLE('',(#871));
#468=EDGE_LOOP('',(#872,#873,#874,#875));
#469=AXIS2_PLACEMENT_3D('',#876,#877,#878);
#471=SURFACE_STYLE_FILL_AREA(#879);
#472=ORIENTED_EDGE('',*,*,#880,.F.);
#473=ORIENTED_EDGE('',*,*,#881,.F.);
#474=ORIENTED_EDGE('',*,*,#882,.F.);
#475=ORIENTED_EDGE('',*,*,#883,.F.);
#476=CARTESIAN_POINT('',(3.25,1.5,0.0));
#477=DIRECTION('',(0.0,0.0,1.0));
#478=DIRECTION('',(1.0,0.0,0.0));
#479=SURFACE_STYLE_FILL_AREA(#884);
#480=ORIENTED_EDGE('',*,*,#885,.F.);
#481=ORIENTED_EDGE('',*,*,#886,.F.);
#482=ORIENTED_EDGE('',*,*,#887,.T.);
#483=ORIENTED_EDGE('',*,*,#888,.F.);
#484=CARTESIAN_POINT('',(-3.25,1.5,0.0));
#485=DIRECTION('',(0.0,0.0,1.0));
#486=DIRECTION('',(1.0,0.0,0.0));
#487=SURFACE_STYLE_FILL_AREA(#889);
#488=ORIENTED_EDGE('',*,*,#890,.F.);
#489=ORIENTED_EDGE('',*,*,#891,.F.);
#490=ORIENTED_EDGE('',*,*,#892,.T.);
#491=ORIENTED_EDGE('',*,*,#893,.F.);
#492=CARTESIAN_POINT('',(-3.25,1.5,0.0));
#493=DIRECTION('',(0.0,0.0,1.0));
#494=DIRECTION('',(1.0,0.0,0.0));
#495=SURFACE_STYLE_FILL_AREA(#894);
#496=ORIENTED_EDGE('',*,*,#895,.F.);
#497=ORIENTED_EDGE('',*,*,#896,.T.);
#498=CARTESIAN_POINT('',(-1.95,6.39,1.45));
#499=DIRECTION('',(0.0,0.0,1.0));
#500=DIRECTION('',(1.0,0.0,0.0));
#501=SURFACE_STYLE_FILL_AREA(#897);
#502=ORIENTED_EDGE('',*,*,#898,.F.);
#503=ORIENTED_EDGE('',*,*,#896,.F.);
#504=ORIENTED_EDGE('',*,*,#899,.F.);
#505=ORIENTED_EDGE('',*,*,#900,.F.);
#506=CARTESIAN_POINT('',(-1.95,6.39,0.0));
#507=DIRECTION('',(0.0,0.0,1.0));
#508=DIRECTION('',(1.0,0.0,0.0));
#509=SURFACE_STYLE_FILL_AREA(#901);
#510=ORIENTED_EDGE('',*,*,#902,.F.);
#511=ORIENTED_EDGE('',*,*,#900,.T.);
#512=CARTESIAN_POINT('',(-1.95,6.39,-1.45));
#513=DIRECTION('',(0.0,0.0,-1.0));
#514=DIRECTION('',(-1.0,0.0,0.0));
#515=SURFACE_STYLE_FILL_AREA(#903);
#516=ORIENTED_EDGE('',*,*,#904,.F.);
#517=ORIENTED_EDGE('',*,*,#905,.T.);
#518=ORIENTED_EDGE('',*,*,#906,.T.);
#519=ORIENTED_EDGE('',*,*,#907,.T.);
#520=ORIENTED_EDGE('',*,*,#908,.T.);
#521=ORIENTED_EDGE('',*,*,#909,.T.);
#522=CARTESIAN_POINT('',(5.53,-2.17680412371134,1.97319587628866));
#523=DIRECTION('',(-1.0,0.0,6.12323399573676E-17));
#524=DIRECTION('',(6.12323399573676E-17,0.0,1.0));
#525=SURFACE_STYLE_FILL_AREA(#910);
#526=ORIENTED_EDGE('',*,*,#911,.F.);
#527=ORIENTED_EDGE('',*,*,#912,.T.);
#528=ORIENTED_EDGE('',*,*,#913,.F.);
#529=ORIENTED_EDGE('',*,*,#905,.F.);
#530=CARTESIAN_POINT('',(5.53,-1.05,0.2));
#531=DIRECTION('',(6.12323399573676E-17,-8.95341148891255E-18,1.0));
#532=DIRECTION('',(5.48238336067295E-34,1.0,8.95341148891255E-18));
#533=SURFACE_STYLE_FILL_AREA(#914);
#534=ORIENTED_EDGE('',*,*,#915,.T.);
#535=ORIENTED_EDGE('',*,*,#916,.F.);
#536=ORIENTED_EDGE('',*,*,#907,.F.);
#537=ORIENTED_EDGE('',*,*,#917,.T.);
#538=CARTESIAN_POINT('',(5.53,-2.8,6.0));
#539=DIRECTION('',(6.12323399573676E-17,-0.0,1.0));
#540=DIRECTION('',(0.0,1.0,0.0));
#541=SURFACE_STYLE_FILL_AREA(#918);
#542=ORIENTED_EDGE('',*,*,#919,.T.);
#543=ORIENTED_EDGE('',*,*,#920,.F.);
#544=ORIENTED_EDGE('',*,*,#908,.F.);
#545=ORIENTED_EDGE('',*,*,#916,.T.);
#546=CARTESIAN_POINT('',(5.53,-3.0,2.9));
#547=DIRECTION('',(0.0,-1.0,0.0));
#548=DIRECTION('',(6.12323399573676E-17,0.0,1.0));
#549=SURFACE_STYLE_FILL_AREA(#921);
#550=ORIENTED_EDGE('',*,*,#922,.F.);
#551=ORIENTED_EDGE('',*,*,#909,.F.);
#552=ORIENTED_EDGE('',*,*,#920,.T.);
#553=ORIENTED_EDGE('',*,*,#923,.T.);
#554=CARTESIAN_POINT('',(5.53,-1.25,-0.2));
#555=DIRECTION('',(-6.12323399573676E-17,-0.0,-1.0));
#556=DIRECTION('',(0.0,-1.0,0.0));
#557=SURFACE_STYLE_FILL_AREA(#924);
#558=ORIENTED_EDGE('',*,*,#925,.T.);
#559=ORIENTED_EDGE('',*,*,#917,.F.);
#560=ORIENTED_EDGE('',*,*,#906,.F.);
#561=ORIENTED_EDGE('',*,*,#913,.T.);
#562=CARTESIAN_POINT('',(5.53,-2.6,3.1));
#563=DIRECTION('',(-4.68838301188583E-33,1.0,-7.65671051465625E-17));
#564=DIRECTION('',(-6.12323399573676E-17,-7.65671051465625E-17,-1.0));
#565=SURFACE_STYLE_FILL_AREA(#926);
#566=ORIENTED_EDGE('',*,*,#927,.F.);
#567=ORIENTED_EDGE('',*,*,#923,.F.);
#568=ORIENTED_EDGE('',*,*,#919,.F.);
#569=ORIENTED_EDGE('',*,*,#915,.F.);
#570=ORIENTED_EDGE('',*,*,#925,.F.);
#571=ORIENTED_EDGE('',*,*,#912,.F.);
#572=CARTESIAN_POINT('',(4.63,-2.17680412371134,1.97319587628866));
#573=DIRECTION('',(-1.0,0.0,6.12323399573676E-17));
#574=DIRECTION('',(6.12323399573676E-17,0.0,1.0));
#575=SURFACE_STYLE_FILL_AREA(#928);
#576=ORIENTED_EDGE('',*,*,#929,.F.);
#577=ORIENTED_EDGE('',*,*,#930,.T.);
#578=ORIENTED_EDGE('',*,*,#931,.T.);
#579=ORIENTED_EDGE('',*,*,#932,.T.);
#580=ORIENTED_EDGE('',*,*,#933,.T.);
#581=ORIENTED_EDGE('',*,*,#934,.T.);
#582=CARTESIAN_POINT('',(0.45,-2.17680412371134,1.97319587628866));
#583=DIRECTION('',(-1.0,0.0,6.12323399573676E-17));
#584=DIRECTION('',(6.12323399573676E-17,0.0,1.0));
#585=SURFACE_STYLE_FILL_AREA(#935);
#586=ORIENTED_EDGE('',*,*,#936,.F.);
#587=ORIENTED_EDGE('',*,*,#937,.T.);
#588=ORIENTED_EDGE('',*,*,#938,.F.);
#589=ORIENTED_EDGE('',*,*,#930,.F.);
#590=CARTESIAN_POINT('',(0.45,-1.05,0.2));
#591=DIRECTION('',(6.12323399573676E-17,-8.95341148891255E-18,1.0));
#592=DIRECTION('',(5.48238336067295E-34,1.0,8.95341148891255E-18));
#593=SURFACE_STYLE_FILL_AREA(#939);
#594=ORIENTED_EDGE('',*,*,#940,.T.);
#595=ORIENTED_EDGE('',*,*,#941,.F.);
#596=ORIENTED_EDGE('',*,*,#932,.F.);
#597=ORIENTED_EDGE('',*,*,#942,.T.);
#598=CARTESIAN_POINT('',(0.45,-2.8,6.0));
#599=DIRECTION('',(6.12323399573676E-17,-0.0,1.0));
#600=DIRECTION('',(0.0,1.0,0.0));
#601=SURFACE_STYLE_FILL_AREA(#943);
#602=ORIENTED_EDGE('',*,*,#944,.T.);
#603=ORIENTED_EDGE('',*,*,#945,.F.);
#604=ORIENTED_EDGE('',*,*,#933,.F.);
#605=ORIENTED_EDGE('',*,*,#941,.T.);
#606=CARTESIAN_POINT('',(0.45,-3.0,2.9));
#607=DIRECTION('',(0.0,-1.0,0.0));
#608=DIRECTION('',(6.12323399573676E-17,0.0,1.0));
#609=SURFACE_STYLE_FILL_AREA(#946);
#610=ORIENTED_EDGE('',*,*,#947,.F.);
#611=ORIENTED_EDGE('',*,*,#934,.F.);
#612=ORIENTED_EDGE('',*,*,#945,.T.);
#613=ORIENTED_EDGE('',*,*,#948,.T.);
#614=CARTESIAN_POINT('',(0.45,-1.25,-0.2));
#615=DIRECTION('',(-6.12323399573676E-17,-0.0,-1.0));
#616=DIRECTION('',(0.0,-1.0,0.0));
#617=SURFACE_STYLE_FILL_AREA(#949);
#618=ORIENTED_EDGE('',*,*,#950,.T.);
#619=ORIENTED_EDGE('',*,*,#942,.F.);
#620=ORIENTED_EDGE('',*,*,#931,.F.);
#621=ORIENTED_EDGE('',*,*,#938,.T.);
#622=CARTESIAN_POINT('',(0.45,-2.6,3.1));
#623=DIRECTION('',(-4.68838301188583E-33,1.0,-7.65671051465625E-17));
#624=DIRECTION('',(-6.12323399573676E-17,-7.65671051465625E-17,-1.0));
#625=SURFACE_STYLE_FILL_AREA(#951);
#626=ORIENTED_EDGE('',*,*,#952,.F.);
#627=ORIENTED_EDGE('',*,*,#948,.F.);
#628=ORIENTED_EDGE('',*,*,#944,.F.);
#629=ORIENTED_EDGE('',*,*,#940,.F.);
#630=ORIENTED_EDGE('',*,*,#950,.F.);
#631=ORIENTED_EDGE('',*,*,#937,.F.);
#632=CARTESIAN_POINT('',(-0.449999999999999,-2.17680412371134,1.97319587628866));
#633=DIRECTION('',(-1.0,0.0,6.12323399573676E-17));
#634=DIRECTION('',(6.12323399573676E-17,0.0,1.0));
#635=SURFACE_STYLE_FILL_AREA(#953);
#636=ORIENTED_EDGE('',*,*,#954,.F.);
#637=ORIENTED_EDGE('',*,*,#955,.T.);
#638=ORIENTED_EDGE('',*,*,#956,.T.);
#639=ORIENTED_EDGE('',*,*,#957,.T.);
#640=ORIENTED_EDGE('',*,*,#958,.T.);
#641=ORIENTED_EDGE('',*,*,#959,.T.);
#642=CARTESIAN_POINT('',(-4.63,-2.17680412371134,1.97319587628866));
#643=DIRECTION('',(-1.0,0.0,6.12323399573676E-17));
#644=DIRECTION('',(6.12323399573676E-17,0.0,1.0));
#645=SURFACE_STYLE_FILL_AREA(#960);
#646=ORIENTED_EDGE('',*,*,#961,.F.);
#647=ORIENTED_EDGE('',*,*,#962,.T.);
#648=ORIENTED_EDGE('',*,*,#963,.F.);
#649=ORIENTED_EDGE('',*,*,#955,.F.);
#650=CARTESIAN_POINT('',(-4.63,-1.05,0.2));
#651=DIRECTION('',(6.12323399573676E-17,-8.95341148891255E-18,1.0));
#652=DIRECTION('',(5.48238336067295E-34,1.0,8.95341148891255E-18));
#653=SURFACE_STYLE_FILL_AREA(#964);
#654=ORIENTED_EDGE('',*,*,#965,.T.);
#655=ORIENTED_EDGE('',*,*,#966,.F.);
#656=ORIENTED_EDGE('',*,*,#957,.F.);
#657=ORIENTED_EDGE('',*,*,#967,.T.);
#658=CARTESIAN_POINT('',(-4.63,-2.8,6.0));
#659=DIRECTION('',(6.12323399573676E-17,-0.0,1.0));
#660=DIRECTION('',(0.0,1.0,0.0));
#661=SURFACE_STYLE_FILL_AREA(#968);
#662=ORIENTED_EDGE('',*,*,#969,.T.);
#663=ORIENTED_EDGE('',*,*,#970,.F.);
#664=ORIENTED_EDGE('',*,*,#958,.F.);
#665=ORIENTED_EDGE('',*,*,#966,.T.);
#666=CARTESIAN_POINT('',(-4.63,-3.0,2.9));
#667=DIRECTION('',(0.0,-1.0,0.0));
#668=DIRECTION('',(6.12323399573676E-17,0.0,1.0));
#669=SURFACE_STYLE_FILL_AREA(#971);
#670=ORIENTED_EDGE('',*,*,#972,.F.);
#671=ORIENTED_EDGE('',*,*,#959,.F.);
#672=ORIENTED_EDGE('',*,*,#970,.T.);
#673=ORIENTED_EDGE('',*,*,#973,.T.);
#674=CARTESIAN_POINT('',(-4.63,-1.25,-0.2));
#675=DIRECTION('',(-6.12323399573676E-17,-0.0,-1.0));
#676=DIRECTION('',(0.0,-1.0,0.0));
#677=SURFACE_STYLE_FILL_AREA(#974);
#678=ORIENTED_EDGE('',*,*,#975,.T.);
#679=ORIENTED_EDGE('',*,*,#967,.F.);
#680=ORIENTED_EDGE('',*,*,#956,.F.);
#681=ORIENTED_EDGE('',*,*,#963,.T.);
#682=CARTESIAN_POINT('',(-4.63,-2.6,3.1));
#683=DIRECTION('',(-4.68838301188583E-33,1.0,-7.65671051465625E-17));
#684=DIRECTION('',(-6.12323399573676E-17,-7.65671051465625E-17,-1.0));
#685=SURFACE_STYLE_FILL_AREA(#976);
#686=ORIENTED_EDGE('',*,*,#977,.F.);
#687=ORIENTED_EDGE('',*,*,#973,.F.);
#688=ORIENTED_EDGE('',*,*,#969,.F.);
#689=ORIENTED_EDGE('',*,*,#965,.F.);
#690=ORIENTED_EDGE('',*,*,#975,.F.);
#691=ORIENTED_EDGE('',*,*,#962,.F.);
#692=CARTESIAN_POINT('',(-5.53,-2.17680412371134,1.97319587628866));
#693=DIRECTION('',(-1.0,0.0,6.12323399573676E-17));
#694=DIRECTION('',(6.12323399573676E-17,0.0,1.0));
#695=SURFACE_STYLE_FILL_AREA(#978);
#696=ORIENTED_EDGE('',*,*,#979,.F.);
#697=ORIENTED_EDGE('',*,*,#980,.F.);
#698=ORIENTED_EDGE('',*,*,#981,.T.);
#699=ORIENTED_EDGE('',*,*,#982,.F.);
#700=ORIENTED_EDGE('',*,*,#983,.F.);
#701=ORIENTED_EDGE('',*,*,#984,.T.);
#702=CARTESIAN_POINT('',(0.31890035109056,8.83100159039961,-1.5));
#703=DIRECTION('',(0.0,0.0,1.0));
#704=DIRECTION('',(1.0,0.0,0.0));
#705=SURFACE_STYLE_FILL_AREA(#985);
#706=ORIENTED_EDGE('',*,*,#986,.F.);
#707=ORIENTED_EDGE('',*,*,#987,.T.);
#708=ORIENTED_EDGE('',*,*,#988,.F.);
#709=ORIENTED_EDGE('',*,*,#980,.T.);
#710=CARTESIAN_POINT('',(-5.30000578396277,6.27101521168204,-1.5));
#711=DIRECTION('',(-0.999999999950097,-9.99028949325345E-06,0.0));
#712=DIRECTION('',(9.99028949325345E-06,-0.999999999950097,0.0));
#713=SURFACE_STYLE_FILL_AREA(#989);
#714=ORIENTED_EDGE('',*,*,#990,.F.);
#715=ORIENTED_EDGE('',*,*,#984,.F.);
#716=ORIENTED_EDGE('',*,*,#991,.T.);
#717=ORIENTED_EDGE('',*,*,#992,.T.);
#718=CARTESIAN_POINT('',(-5.00000239578569,6.16850518111711,-1.5));
#719=DIRECTION('',(0.999999999987358,5.0282527014689E-06,0.0));
#720=DIRECTION('',(-5.0282527014689E-06,0.999999999987358,0.0));
#721=SURFACE_STYLE_FILL_AREA(#993);
#722=ORIENTED_EDGE('',*,*,#994,.T.);
#723=ORIENTED_EDGE('',*,*,#995,.F.);
#724=ORIENTED_EDGE('',*,*,#981,.F.);
#725=ORIENTED_EDGE('',*,*,#988,.T.);
#726=CARTESIAN_POINT('',(0.662735445297558,9.1749950420816,-1.5));
#727=DIRECTION('',(-0.363282024674751,0.931679220841709,0.0));
#728=DIRECTION('',(-0.931679220841709,-0.363282024674751,-0.0));
#729=SURFACE_STYLE_FILL_AREA(#996);
#730=ORIENTED_EDGE('',*,*,#997,.T.);
#731=ORIENTED_EDGE('',*,*,#998,.F.);
#732=ORIENTED_EDGE('',*,*,#982,.T.);
#733=ORIENTED_EDGE('',*,*,#995,.T.);
#734=CARTESIAN_POINT('',(6.67997476238568,11.3602481168737,-1.5));
#735=DIRECTION('',(0.931679220841711,0.363282024674745,0.0));
#736=DIRECTION('',(-0.363282024674745,0.931679220841711,0.0));
#737=SURFACE_STYLE_FILL_AREA(#999);
#738=ORIENTED_EDGE('',*,*,#1000,.T.);
#739=ORIENTED_EDGE('',*,*,#991,.F.);
#740=ORIENTED_EDGE('',*,*,#983,.T.);
#741=ORIENTED_EDGE('',*,*,#998,.T.);
#742=CARTESIAN_POINT('',(0.867231137257791,8.93273312839042,-1.5));
#743=DIRECTION('',(0.363282024674752,-0.931679220841709,0.0));
#744=DIRECTION('',(0.931679220841709,0.363282024674752,0.0));
#745=SURFACE_STYLE_FILL_AREA(#1001);
#746=ORIENTED_EDGE('',*,*,#1002,.F.);
#747=ORIENTED_EDGE('',*,*,#992,.F.);
#748=ORIENTED_EDGE('',*,*,#1000,.F.);
#749=ORIENTED_EDGE('',*,*,#997,.F.);
#750=ORIENTED_EDGE('',*,*,#994,.F.);
#751=ORIENTED_EDGE('',*,*,#987,.F.);
#752=CARTESIAN_POINT('',(0.31890035109056,8.83100159039961,1.5));
#753=DIRECTION('',(0.0,0.0,1.0));
#754=DIRECTION('',(1.0,0.0,0.0));
#755=SURFACE_STYLE_FILL_AREA(#1003);
#756=ORIENTED_EDGE('',*,*,#1004,.F.);
#757=ORIENTED_EDGE('',*,*,#1005,.F.);
#758=ORIENTED_EDGE('',*,*,#1006,.F.);
#759=ORIENTED_EDGE('',*,*,#1007,.F.);
#760=CARTESIAN_POINT('',(-2.5,0.5,0.0));
#761=DIRECTION('',(0.0,1.0,0.0));
#762=DIRECTION('',(0.0,0.0,1.0));
#763=SURFACE_STYLE_FILL_AREA(#1008);
#764=ORIENTED_EDGE('',*,*,#890,.T.);
#765=ORIENTED_EDGE('',*,*,#1009,.F.);
#766=ORIENTED_EDGE('',*,*,#1007,.T.);
#767=ORIENTED_EDGE('',*,*,#1010,.F.);
#768=CARTESIAN_POINT('',(-3.25,1.5,0.0));
#769=DIRECTION('',(0.0,0.0,1.0));
#770=DIRECTION('',(1.0,0.0,0.0));
#771=SURFACE_STYLE_FILL_AREA(#1011);
#772=ORIENTED_EDGE('',*,*,#1012,.F.);
#773=ORIENTED_EDGE('',*,*,#892,.F.);
#774=ORIENTED_EDGE('',*,*,#1013,.F.);
#775=ORIENTED_EDGE('',*,*,#887,.F.);
#776=CARTESIAN_POINT('',(-2.5,2.5,0.0));
#777=DIRECTION('',(0.0,-1.0,0.0));
#778=DIRECTION('',(0.0,0.0,-1.0));
#779=SURFACE_STYLE_FILL_AREA(#1014);
#780=ORIENTED_EDGE('',*,*,#885,.T.);
#781=ORIENTED_EDGE('',*,*,#1015,.F.);
#782=ORIENTED_EDGE('',*,*,#1005,.T.);
#783=ORIENTED_EDGE('',*,*,#1016,.F.);
#784=CARTESIAN_POINT('',(-3.25,1.5,0.0));
#785=DIRECTION('',(0.0,0.0,1.0));
#786=DIRECTION('',(1.0,0.0,0.0));
#787=SURFACE_STYLE_FILL_AREA(#1017);
#788=ORIENTED_EDGE('',*,*,#880,.T.);
#789=ORIENTED_EDGE('',*,*,#1018,.F.);
#790=ORIENTED_EDGE('',*,*,#882,.T.);
#791=ORIENTED_EDGE('',*,*,#1019,.F.);
#792=CARTESIAN_POINT('',(3.25,1.5,0.0));
#793=DIRECTION('',(0.0,0.0,1.0));
#794=DIRECTION('',(1.0,0.0,0.0));
#795=SURFACE_STYLE_FILL_AREA(#1020);
#796=ORIENTED_EDGE('',*,*,#1012,.T.);
#797=ORIENTED_EDGE('',*,*,#886,.T.);
#798=ORIENTED_EDGE('',*,*,#1016,.T.);
#799=ORIENTED_EDGE('',*,*,#1004,.T.);
#800=ORIENTED_EDGE('',*,*,#1009,.T.);
#801=ORIENTED_EDGE('',*,*,#893,.T.);
#802=ORIENTED_EDGE('',*,*,#881,.T.);
#803=ORIENTED_EDGE('',*,*,#1019,.T.);
#804=ORIENTED_EDGE('',*,*,#1021,.T.);
#805=ORIENTED_EDGE('',*,*,#1022,.T.);
#806=ORIENTED_EDGE('',*,*,#1023,.T.);
#807=ORIENTED_EDGE('',*,*,#1024,.T.);
#808=CARTESIAN_POINT('',(0.0,3.25,2.9));
#809=DIRECTION('',(0.0,0.0,1.0));
#810=DIRECTION('',(1.0,0.0,0.0));
#811=SURFACE_STYLE_FILL_AREA(#1025);
#812=ORIENTED_EDGE('',*,*,#1013,.T.);
#813=ORIENTED_EDGE('',*,*,#891,.T.);
#814=ORIENTED_EDGE('',*,*,#1010,.T.);
#815=ORIENTED_EDGE('',*,*,#1006,.T.);
#816=ORIENTED_EDGE('',*,*,#1015,.T.);
#817=ORIENTED_EDGE('',*,*,#888,.T.);
#818=ORIENTED_EDGE('',*,*,#1018,.T.);
#819=ORIENTED_EDGE('',*,*,#883,.T.);
#820=ORIENTED_EDGE('',*,*,#1026,.T.);
#821=ORIENTED_EDGE('',*,*,#1027,.T.);
#822=ORIENTED_EDGE('',*,*,#1028,.T.);
#823=ORIENTED_EDGE('',*,*,#1029,.T.);
#824=CARTESIAN_POINT('',(0.0,3.25,-2.9));
#825=DIRECTION('',(0.0,0.0,1.0));
#826=DIRECTION('',(1.0,0.0,0.0));
#827=SURFACE_STYLE_FILL_AREA(#1030);
#828=ORIENTED_EDGE('',*,*,#911,.T.);
#829=ORIENTED_EDGE('',*,*,#904,.T.);
#830=ORIENTED_EDGE('',*,*,#922,.T.);
#831=ORIENTED_EDGE('',*,*,#927,.T.);
#832=ORIENTED_EDGE('',*,*,#936,.T.);
#833=ORIENTED_EDGE('',*,*,#929,.T.);
#834=ORIENTED_EDGE('',*,*,#947,.T.);
#835=ORIENTED_EDGE('',*,*,#952,.T.);
#836=ORIENTED_EDGE('',*,*,#961,.T.);
#837=ORIENTED_EDGE('',*,*,#954,.T.);
#838=ORIENTED_EDGE('',*,*,#972,.T.);
#839=ORIENTED_EDGE('',*,*,#977,.T.);
#840=ORIENTED_EDGE('',*,*,#1031,.T.);
#841=ORIENTED_EDGE('',*,*,#1027,.F.);
#842=ORIENTED_EDGE('',*,*,#1032,.F.);
#843=ORIENTED_EDGE('',*,*,#1024,.F.);
#844=CARTESIAN_POINT('',(0.0,0.0,0.0));
#845=DIRECTION('',(0.0,1.0,0.0));
#846=DIRECTION('',(0.0,0.0,1.0));
#847=SURFACE_STYLE_FILL_AREA(#1033);
#848=ORIENTED_EDGE('',*,*,#1034,.T.);
#849=ORIENTED_EDGE('',*,*,#1028,.F.);
#850=ORIENTED_EDGE('',*,*,#1031,.F.);
#851=ORIENTED_EDGE('',*,*,#1023,.F.);
#852=CARTESIAN_POINT('',(-6.4,3.25,0.0));
#853=DIRECTION('',(1.0,0.0,0.0));
#854=DIRECTION('',(0.0,0.0,-1.0));
#855=SURFACE_STYLE_FILL_AREA(#1035);
#856=ORIENTED_EDGE('',*,*,#899,.T.);
#857=ORIENTED_EDGE('',*,*,#895,.T.);
#858=ORIENTED_EDGE('',*,*,#898,.T.);
#859=ORIENTED_EDGE('',*,*,#902,.T.);
#860=ORIENTED_EDGE('',*,*,#986,.T.);
#861=ORIENTED_EDGE('',*,*,#979,.T.);
#862=ORIENTED_EDGE('',*,*,#990,.T.);
#863=ORIENTED_EDGE('',*,*,#1002,.T.);
#864=ORIENTED_EDGE('',*,*,#1036,.T.);
#865=ORIENTED_EDGE('',*,*,#1029,.F.);
#866=ORIENTED_EDGE('',*,*,#1034,.F.);
#867=ORIENTED_EDGE('',*,*,#1022,.F.);
#868=CARTESIAN_POINT('',(0.0,6.5,0.0));
#869=DIRECTION('',(0.0,-1.0,0.0));
#870=DIRECTION('',(0.0,0.0,-1.0));
#871=SURFACE_STYLE_FILL_AREA(#1037);
#872=ORIENTED_EDGE('',*,*,#1032,.T.);
#873=ORIENTED_EDGE('',*,*,#1026,.F.);
#874=ORIENTED_EDGE('',*,*,#1036,.F.);
#875=ORIENTED_EDGE('',*,*,#1021,.F.);
#876=CARTESIAN_POINT('',(6.4,3.25,0.0));
#877=DIRECTION('',(-1.0,0.0,0.0));
#878=DIRECTION('',(0.0,0.0,1.0));
#879=FILL_AREA_STYLE('',(#1038));
#880=EDGE_CURVE('',#1039,#1040,#1041,.T.);
#881=EDGE_CURVE('',#1042,#1039,#1043,.T.);
#882=EDGE_CURVE('',#1044,#1042,#1045,.T.);
#883=EDGE_CURVE('',#1040,#1044,#1046,.T.);
#884=FILL_AREA_STYLE('',(#1047));
#885=EDGE_CURVE('',#1048,#1049,#1050,.T.);
#886=EDGE_CURVE('',#1051,#1048,#1052,.T.);
#887=EDGE_CURVE('',#1051,#1053,#1054,.T.);
#888=EDGE_CURVE('',#1049,#1053,#1055,.T.);
#889=FILL_AREA_STYLE('',(#1056));
#890=EDGE_CURVE('',#1057,#1058,#1059,.T.);
#891=EDGE_CURVE('',#1060,#1057,#1061,.T.);
#892=EDGE_CURVE('',#1060,#1062,#1063,.T.);
#893=EDGE_CURVE('',#1058,#1062,#1064,.T.);
#894=FILL_AREA_STYLE('',(#1065));
#895=EDGE_CURVE('',#1066,#1067,#1068,.T.);
#896=EDGE_CURVE('',#1066,#1067,#1069,.T.);
#897=FILL_AREA_STYLE('',(#1070));
#898=EDGE_CURVE('',#1067,#1071,#1072,.T.);
#899=EDGE_CURVE('',#1073,#1066,#1074,.T.);
#900=EDGE_CURVE('',#1071,#1073,#1075,.T.);
#901=FILL_AREA_STYLE('',(#1076));
#902=EDGE_CURVE('',#1071,#1073,#1077,.T.);
#903=FILL_AREA_STYLE('',(#1078));
#904=EDGE_CURVE('',#1079,#1080,#1081,.T.);
#905=EDGE_CURVE('',#1079,#1082,#1083,.T.);
#906=EDGE_CURVE('',#1082,#1084,#1085,.T.);
#907=EDGE_CURVE('',#1084,#1086,#1087,.T.);
#908=EDGE_CURVE('',#1086,#1088,#1089,.T.);
#909=EDGE_CURVE('',#1088,#1080,#1090,.T.);
#910=FILL_AREA_STYLE('',(#1091));
#911=EDGE_CURVE('',#1092,#1079,#1093,.T.);
#912=EDGE_CURVE('',#1092,#1094,#1095,.T.);
#913=EDGE_CURVE('',#1082,#1094,#1096,.T.);
#914=FILL_AREA_STYLE('',(#1097));
#915=EDGE_CURVE('',#1098,#1099,#1100,.T.);
#916=EDGE_CURVE('',#1086,#1099,#1101,.T.);
#917=EDGE_CURVE('',#1084,#1098,#1102,.T.);
#918=FILL_AREA_STYLE('',(#1103));
#919=EDGE_CURVE('',#1099,#1104,#1105,.T.);
#920=EDGE_CURVE('',#1088,#1104,#1106,.T.);
#921=FILL_AREA_STYLE('',(#1107));
#922=EDGE_CURVE('',#1080,#1108,#1109,.T.);
#923=EDGE_CURVE('',#1104,#1108,#1110,.T.);
#924=FILL_AREA_STYLE('',(#1111));
#925=EDGE_CURVE('',#1094,#1098,#1112,.T.);
#926=FILL_AREA_STYLE('',(#1113));
#927=EDGE_CURVE('',#1108,#1092,#1114,.T.);
#928=FILL_AREA_STYLE('',(#1115));
#929=EDGE_CURVE('',#1116,#1117,#1118,.T.);
#930=EDGE_CURVE('',#1116,#1119,#1120,.T.);
#931=EDGE_CURVE('',#1119,#1121,#1122,.T.);
#932=EDGE_CURVE('',#1121,#1123,#1124,.T.);
#933=EDGE_CURVE('',#1123,#1125,#1126,.T.);
#934=EDGE_CURVE('',#1125,#1117,#1127,.T.);
#935=FILL_AREA_STYLE('',(#1128));
#936=EDGE_CURVE('',#1129,#1116,#1130,.T.);
#937=EDGE_CURVE('',#1129,#1131,#1132,.T.);
#938=EDGE_CURVE('',#1119,#1131,#1133,.T.);
#939=FILL_AREA_STYLE('',(#1134));
#940=EDGE_CURVE('',#1135,#1136,#1137,.T.);
#941=EDGE_CURVE('',#1123,#1136,#1138,.T.);
#942=EDGE_CURVE('',#1121,#1135,#1139,.T.);
#943=FILL_AREA_STYLE('',(#1140));
#944=EDGE_CURVE('',#1136,#1141,#1142,.T.);
#945=EDGE_CURVE('',#1125,#1141,#1143,.T.);
#946=FILL_AREA_STYLE('',(#1144));
#947=EDGE_CURVE('',#1117,#1145,#1146,.T.);
#948=EDGE_CURVE('',#1141,#1145,#1147,.T.);
#949=FILL_AREA_STYLE('',(#1148));
#950=EDGE_CURVE('',#1131,#1135,#1149,.T.);
#951=FILL_AREA_STYLE('',(#1150));
#952=EDGE_CURVE('',#1145,#1129,#1151,.T.);
#953=FILL_AREA_STYLE('',(#1152));
#954=EDGE_CURVE('',#1153,#1154,#1155,.T.);
#955=EDGE_CURVE('',#1153,#1156,#1157,.T.);
#956=EDGE_CURVE('',#1156,#1158,#1159,.T.);
#957=EDGE_CURVE('',#1158,#1160,#1161,.T.);
#958=EDGE_CURVE('',#1160,#1162,#1163,.T.);
#959=EDGE_CURVE('',#1162,#1154,#1164,.T.);
#960=FILL_AREA_STYLE('',(#1165));
#961=EDGE_CURVE('',#1166,#1153,#1167,.T.);
#962=EDGE_CURVE('',#1166,#1168,#1169,.T.);
#963=EDGE_CURVE('',#1156,#1168,#1170,.T.);
#964=FILL_AREA_STYLE('',(#1171));
#965=EDGE_CURVE('',#1172,#1173,#1174,.T.);
#966=EDGE_CURVE('',#1160,#1173,#1175,.T.);
#967=EDGE_CURVE('',#1158,#1172,#1176,.T.);
#968=FILL_AREA_STYLE('',(#1177));
#969=EDGE_CURVE('',#1173,#1178,#1179,.T.);
#970=EDGE_CURVE('',#1162,#1178,#1180,.T.);
#971=FILL_AREA_STYLE('',(#1181));
#972=EDGE_CURVE('',#1154,#1182,#1183,.T.);
#973=EDGE_CURVE('',#1178,#1182,#1184,.T.);
#974=FILL_AREA_STYLE('',(#1185));
#975=EDGE_CURVE('',#1168,#1172,#1186,.T.);
#976=FILL_AREA_STYLE('',(#1187));
#977=EDGE_CURVE('',#1182,#1166,#1188,.T.);
#978=FILL_AREA_STYLE('',(#1189));
#979=EDGE_CURVE('',#1190,#1191,#1192,.T.);
#980=EDGE_CURVE('',#1193,#1190,#1194,.T.);
#981=EDGE_CURVE('',#1193,#1195,#1196,.T.);
#982=EDGE_CURVE('',#1197,#1195,#1198,.T.);
#983=EDGE_CURVE('',#1199,#1197,#1200,.T.);
#984=EDGE_CURVE('',#1199,#1191,#1201,.T.);
#985=FILL_AREA_STYLE('',(#1202));
#986=EDGE_CURVE('',#1203,#1190,#1204,.T.);
#987=EDGE_CURVE('',#1203,#1205,#1206,.T.);
#988=EDGE_CURVE('',#1193,#1205,#1207,.T.);
#989=FILL_AREA_STYLE('',(#1208));
#990=EDGE_CURVE('',#1191,#1209,#1210,.T.);
#991=EDGE_CURVE('',#1199,#1211,#1212,.T.);
#992=EDGE_CURVE('',#1211,#1209,#1213,.T.);
#993=FILL_AREA_STYLE('',(#1214));
#994=EDGE_CURVE('',#1205,#1215,#1216,.T.);
#995=EDGE_CURVE('',#1195,#1215,#1217,.T.);
#996=FILL_AREA_STYLE('',(#1218));
#997=EDGE_CURVE('',#1215,#1219,#1220,.T.);
#998=EDGE_CURVE('',#1197,#1219,#1221,.T.);
#999=FILL_AREA_STYLE('',(#1222));
#1000=EDGE_CURVE('',#1219,#1211,#1223,.T.);
#1001=FILL_AREA_STYLE('',(#1224));
#1002=EDGE_CURVE('',#1209,#1203,#1225,.T.);
#1003=FILL_AREA_STYLE('',(#1226));
#1004=EDGE_CURVE('',#1227,#1228,#1229,.T.);
#1005=EDGE_CURVE('',#1230,#1227,#1231,.T.);
#1006=EDGE_CURVE('',#1232,#1230,#1233,.T.);
#1007=EDGE_CURVE('',#1228,#1232,#1234,.T.);
#1008=FILL_AREA_STYLE('',(#1235));
#1009=EDGE_CURVE('',#1228,#1058,#1236,.T.);
#1010=EDGE_CURVE('',#1057,#1232,#1237,.T.);
#1011=FILL_AREA_STYLE('',(#1238));
#1012=EDGE_CURVE('',#1062,#1051,#1239,.T.);
#1013=EDGE_CURVE('',#1053,#1060,#1240,.T.);
#1014=FILL_AREA_STYLE('',(#1241));
#1015=EDGE_CURVE('',#1230,#1049,#1242,.T.);
#1016=EDGE_CURVE('',#1048,#1227,#1243,.T.);
#1017=FILL_AREA_STYLE('',(#1244));
#1018=EDGE_CURVE('',#1044,#1040,#1245,.T.);
#1019=EDGE_CURVE('',#1039,#1042,#1246,.T.);
#1020=FILL_AREA_STYLE('',(#1247));
#1021=EDGE_CURVE('',#1248,#1249,#1250,.T.);
#1022=EDGE_CURVE('',#1249,#1251,#1252,.T.);
#1023=EDGE_CURVE('',#1251,#1253,#1254,.T.);
#1024=EDGE_CURVE('',#1253,#1248,#1255,.T.);
#1025=FILL_AREA_STYLE('',(#1256));
#1026=EDGE_CURVE('',#1257,#1258,#1259,.T.);
#1027=EDGE_CURVE('',#1258,#1260,#1261,.T.);
#1028=EDGE_CURVE('',#1260,#1262,#1263,.T.);
#1029=EDGE_CURVE('',#1262,#1257,#1264,.T.);
#1030=FILL_AREA_STYLE('',(#1265));
#1031=EDGE_CURVE('',#1253,#1260,#1266,.T.);
#1032=EDGE_CURVE('',#1248,#1258,#1267,.T.);
#1033=FILL_AREA_STYLE('',(#1268));
#1034=EDGE_CURVE('',#1251,#1262,#1269,.T.);
#1035=FILL_AREA_STYLE('',(#1270));
#1036=EDGE_CURVE('',#1249,#1257,#1271,.T.);
#1037=FILL_AREA_STYLE('',(#1272));
#1038=FILL_AREA_STYLE_COLOUR('',#1273);
#1039=VERTEX_POINT('',#1274);
#1040=VERTEX_POINT('',#1275);
#1041=LINE('',#1276,#1277);
#1042=VERTEX_POINT('',#1278);
#1043=CIRCLE('',#1279,1.0);
#1044=VERTEX_POINT('',#1280);
#1045=LINE('',#1281,#1282);
#1046=CIRCLE('',#1283,1.0);
#1047=FILL_AREA_STYLE_COLOUR('',#1284);
#1048=VERTEX_POINT('',#1285);
#1049=VERTEX_POINT('',#1286);
#1050=LINE('',#1287,#1288);
#1051=VERTEX_POINT('',#1289);
#1052=CIRCLE('',#1290,1.1);
#1053=VERTEX_POINT('',#1291);
#1054=LINE('',#1292,#1293);
#1055=CIRCLE('',#1294,1.1);
#1056=FILL_AREA_STYLE_COLOUR('',#1295);
#1057=VERTEX_POINT('',#1296);
#1058=VERTEX_POINT('',#1297);
#1059=LINE('',#1298,#1299);
#1060=VERTEX_POINT('',#1300);
#1061=CIRCLE('',#1301,1.1);
#1062=VERTEX_POINT('',#1302);
#1063=LINE('',#1303,#1304);
#1064=CIRCLE('',#1305,1.1);
#1065=FILL_AREA_STYLE_COLOUR('',#1306);
#1066=VERTEX_POINT('',#1307);
#1067=VERTEX_POINT('',#1308);
#1068=LINE('',#1309,#1310);
#1069=CIRCLE('',#1311,0.61);
#1070=FILL_AREA_STYLE_COLOUR('',#1312);
#1071=VERTEX_POINT('',#1313);
#1072=LINE('',#1314,#1315);
#1073=VERTEX_POINT('',#1316);
#1074=LINE('',#1317,#1318);
#1075=CIRCLE('',#1319,0.61);
#1076=FILL_AREA_STYLE_COLOUR('',#1320);
#1077=LINE('',#1321,#1322);
#1078=FILL_AREA_STYLE_COLOUR('',#1323);
#1079=VERTEX_POINT('',#1324);
#1080=VERTEX_POINT('',#1325);
#1081=LINE('',#1326,#1327);
#1082=VERTEX_POINT('',#1328);
#1083=LINE('',#1329,#1330);
#1084=VERTEX_POINT('',#1331);
#1085=LINE('',#1332,#1333);
#1086=VERTEX_POINT('',#1334);
#1087=LINE('',#1335,#1336);
#1088=VERTEX_POINT('',#1337);
#1089=LINE('',#1338,#1339);
#1090=LINE('',#1340,#1341);
#1091=FILL_AREA_STYLE_COLOUR('',#1342);
#1092=VERTEX_POINT('',#1343);
#1093=LINE('',#1344,#1345);
#1094=VERTEX_POINT('',#1346);
#1095=LINE('',#1347,#1348);
#1096=LINE('',#1349,#1350);
#1097=FILL_AREA_STYLE_COLOUR('',#1351);
#1098=VERTEX_POINT('',#1352);
#1099=VERTEX_POINT('',#1353);
#1100=LINE('',#1354,#1355);
#1101=LINE('',#1356,#1357);
#1102=LINE('',#1358,#1359);
#1103=FILL_AREA_STYLE_COLOUR('',#1360);
#1104=VERTEX_POINT('',#1361);
#1105=LINE('',#1362,#1363);
#1106=LINE('',#1364,#1365);
#1107=FILL_AREA_STYLE_COLOUR('',#1366);
#1108=VERTEX_POINT('',#1367);
#1109=LINE('',#1368,#1369);
#1110=LINE('',#1370,#1371);
#1111=FILL_AREA_STYLE_COLOUR('',#1372);
#1112=LINE('',#1373,#1374);
#1113=FILL_AREA_STYLE_COLOUR('',#1375);
#1114=LINE('',#1376,#1377);
#1115=FILL_AREA_STYLE_COLOUR('',#1378);
#1116=VERTEX_POINT('',#1379);
#1117=VERTEX_POINT('',#1380);
#1118=LINE('',#1381,#1382);
#1119=VERTEX_POINT('',#1383);
#1120=LINE('',#1384,#1385);
#1121=VERTEX_POINT('',#1386);
#1122=LINE('',#1387,#1388);
#1123=VERTEX_POINT('',#1389);
#1124=LINE('',#1390,#1391);
#1125=VERTEX_POINT('',#1392);
#1126=LINE('',#1393,#1394);
#1127=LINE('',#1395,#1396);
#1128=FILL_AREA_STYLE_COLOUR('',#1397);
#1129=VERTEX_POINT('',#1398);
#1130=LINE('',#1399,#1400);
#1131=VERTEX_POINT('',#1401);
#1132=LINE('',#1402,#1403);
#1133=LINE('',#1404,#1405);
#1134=FILL_AREA_STYLE_COLOUR('',#1406);
#1135=VERTEX_POINT('',#1407);
#1136=VERTEX_POINT('',#1408);
#1137=LINE('',#1409,#1410);
#1138=LINE('',#1411,#1412);
#1139=LINE('',#1413,#1414);
#1140=FILL_AREA_STYLE_COLOUR('',#1415);
#1141=VERTEX_POINT('',#1416);
#1142=LINE('',#1417,#1418);
#1143=LINE('',#1419,#1420);
#1144=FILL_AREA_STYLE_COLOUR('',#1421);
#1145=VERTEX_POINT('',#1422);
#1146=LINE('',#1423,#1424);
#1147=LINE('',#1425,#1426);
#1148=FILL_AREA_STYLE_COLOUR('',#1427);
#1149=LINE('',#1428,#1429);
#1150=FILL_AREA_STYLE_COLOUR('',#1430);
#1151=LINE('',#1431,#1432);
#1152=FILL_AREA_STYLE_COLOUR('',#1433);
#1153=VERTEX_POINT('',#1434);
#1154=VERTEX_POINT('',#1435);
#1155=LINE('',#1436,#1437);
#1156=VERTEX_POINT('',#1438);
#1157=LINE('',#1439,#1440);
#1158=VERTEX_POINT('',#1441);
#1159=LINE('',#1442,#1443);
#1160=VERTEX_POINT('',#1444);
#1161=LINE('',#1445,#1446);
#1162=VERTEX_POINT('',#1447);
#1163=LINE('',#1448,#1449);
#1164=LINE('',#1450,#1451);
#1165=FILL_AREA_STYLE_COLOUR('',#1452);
#1166=VERTEX_POINT('',#1453);
#1167=LINE('',#1454,#1455);
#1168=VERTEX_POINT('',#1456);
#1169=LINE('',#1457,#1458);
#1170=LINE('',#1459,#1460);
#1171=FILL_AREA_STYLE_COLOUR('',#1461);
#1172=VERTEX_POINT('',#1462);
#1173=VERTEX_POINT('',#1463);
#1174=LINE('',#1464,#1465);
#1175=LINE('',#1466,#1467);
#1176=LINE('',#1468,#1469);
#1177=FILL_AREA_STYLE_COLOUR('',#1470);
#1178=VERTEX_POINT('',#1471);
#1179=LINE('',#1472,#1473);
#1180=LINE('',#1474,#1475);
#1181=FILL_AREA_STYLE_COLOUR('',#1476);
#1182=VERTEX_POINT('',#1477);
#1183=LINE('',#1478,#1479);
#1184=LINE('',#1480,#1481);
#1185=FILL_AREA_STYLE_COLOUR('',#1482);
#1186=LINE('',#1483,#1484);
#1187=FILL_AREA_STYLE_COLOUR('',#1485);
#1188=LINE('',#1486,#1487);
#1189=FILL_AREA_STYLE_COLOUR('',#1488);
#1190=VERTEX_POINT('',#1489);
#1191=VERTEX_POINT('',#1490);
#1192=LINE('',#1491,#1492);
#1193=VERTEX_POINT('',#1493);
#1194=LINE('',#1494,#1495);
#1195=VERTEX_POINT('',#1496);
#1196=LINE('',#1497,#1498);
#1197=VERTEX_POINT('',#1499);
#1198=LINE('',#1500,#1501);
#1199=VERTEX_POINT('',#1502);
#1200=LINE('',#1503,#1504);
#1201=LINE('',#1505,#1506);
#1202=FILL_AREA_STYLE_COLOUR('',#1507);
#1203=VERTEX_POINT('',#1508);
#1204=LINE('',#1509,#1510);
#1205=VERTEX_POINT('',#1511);
#1206=LINE('',#1512,#1513);
#1207=LINE('',#1514,#1515);
#1208=FILL_AREA_STYLE_COLOUR('',#1516);
#1209=VERTEX_POINT('',#1517);
#1210=LINE('',#1518,#1519);
#1211=VERTEX_POINT('',#1520);
#1212=LINE('',#1521,#1522);
#1213=LINE('',#1523,#1524);
#1214=FILL_AREA_STYLE_COLOUR('',#1525);
#1215=VERTEX_POINT('',#1526);
#1216=LINE('',#1527,#1528);
#1217=LINE('',#1529,#1530);
#1218=FILL_AREA_STYLE_COLOUR('',#1531);
#1219=VERTEX_POINT('',#1532);
#1220=LINE('',#1533,#1534);
#1221=LINE('',#1535,#1536);
#1222=FILL_AREA_STYLE_COLOUR('',#1537);
#1223=LINE('',#1538,#1539);
#1224=FILL_AREA_STYLE_COLOUR('',#1540);
#1225=LINE('',#1541,#1542);
#1226=FILL_AREA_STYLE_COLOUR('',#1543);
#1227=VERTEX_POINT('',#1544);
#1228=VERTEX_POINT('',#1545);
#1229=LINE('',#1546,#1547);
#1230=VERTEX_POINT('',#1548);
#1231=LINE('',#1549,#1550);
#1232=VERTEX_POINT('',#1551);
#1233=LINE('',#1552,#1553);
#1234=LINE('',#1554,#1555);
#1235=FILL_AREA_STYLE_COLOUR('',#1556);
#1236=CIRCLE('',#1557,1.1);
#1237=CIRCLE('',#1558,1.1);
#1238=FILL_AREA_STYLE_COLOUR('',#1559);
#1239=LINE('',#1560,#1561);
#1240=LINE('',#1562,#1563);
#1241=FILL_AREA_STYLE_COLOUR('',#1564);
#1242=CIRCLE('',#1565,1.1);
#1243=CIRCLE('',#1566,1.1);
#1244=FILL_AREA_STYLE_COLOUR('',#1567);
#1245=CIRCLE('',#1568,1.0);
#1246=CIRCLE('',#1569,1.0);
#1247=FILL_AREA_STYLE_COLOUR('',#1570);
#1248=VERTEX_POINT('',#1571);
#1249=VERTEX_POINT('',#1572);
#1250=LINE('',#1573,#1574);
#1251=VERTEX_POINT('',#1575);
#1252=LINE('',#1576,#1577);
#1253=VERTEX_POINT('',#1578);
#1254=LINE('',#1579,#1580);
#1255=LINE('',#1581,#1582);
#1256=FILL_AREA_STYLE_COLOUR('',#1583);
#1257=VERTEX_POINT('',#1584);
#1258=VERTEX_POINT('',#1585);
#1259=LINE('',#1586,#1587);
#1260=VERTEX_POINT('',#1588);
#1261=LINE('',#1589,#1590);
#1262=VERTEX_POINT('',#1591);
#1263=LINE('',#1592,#1593);
#1264=LINE('',#1594,#1595);
#1265=FILL_AREA_STYLE_COLOUR('',#1596);
#1266=LINE('',#1597,#1598);
#1267=LINE('',#1599,#1600);
#1268=FILL_AREA_STYLE_COLOUR('',#1601);
#1269=LINE('',#1602,#1603);
#1270=FILL_AREA_STYLE_COLOUR('',#1604);
#1271=LINE('',#1605,#1606);
#1272=FILL_AREA_STYLE_COLOUR('',#1607);
#1273=COLOUR_RGB('',0.121568627655506,0.121568627655506,0.121568627655506);
#1274=CARTESIAN_POINT('',(4.25,1.5,2.9));
#1275=CARTESIAN_POINT('',(4.25,1.5,-2.9));
#1276=CARTESIAN_POINT('',(4.25,1.5,0.0));
#1277=VECTOR('',#1608,1.0);
#1278=CARTESIAN_POINT('',(2.25,1.5,2.9));
#1279=AXIS2_PLACEMENT_3D('',#1609,#1610,#1611);
#1280=CARTESIAN_POINT('',(2.25,1.5,-2.9));
#1281=CARTESIAN_POINT('',(2.25,1.5,0.0));
#1282=VECTOR('',#1612,1.0);
#1283=AXIS2_PLACEMENT_3D('',#1613,#1614,#1615);
#1284=COLOUR_RGB('',0.121568627655506,0.121568627655506,0.121568627655506);
#1285=CARTESIAN_POINT('',(-2.15,1.5,2.9));
#1286=CARTESIAN_POINT('',(-2.15,1.5,-2.9));
#1287=CARTESIAN_POINT('',(-2.15,1.5,0.0));
#1288=VECTOR('',#1616,1.0);
#1289=CARTESIAN_POINT('',(-2.79174243050442,2.5,2.9));
#1290=AXIS2_PLACEMENT_3D('',#1617,#1618,#1619);
#1291=CARTESIAN_POINT('',(-2.79174243050442,2.5,-2.9));
#1292=CARTESIAN_POINT('',(-2.79174243050442,2.5,0.0));
#1293=VECTOR('',#1620,1.0);
#1294=AXIS2_PLACEMENT_3D('',#1621,#1622,#1623);
#1295=COLOUR_RGB('',0.121568627655506,0.121568627655506,0.121568627655506);
#1296=CARTESIAN_POINT('',(-4.35,1.5,-2.9));
#1297=CARTESIAN_POINT('',(-4.35,1.5,2.9));
#1298=CARTESIAN_POINT('',(-4.35,1.5,0.0));
#1299=VECTOR('',#1624,1.0);
#1300=CARTESIAN_POINT('',(-3.70825756949558,2.5,-2.9));
#1301=AXIS2_PLACEMENT_3D('',#1625,#1626,#1627);
#1302=CARTESIAN_POINT('',(-3.70825756949558,2.5,2.9));
#1303=CARTESIAN_POINT('',(-3.70825756949558,2.5,0.0));
#1304=VECTOR('',#1628,1.0);
#1305=AXIS2_PLACEMENT_3D('',#1629,#1630,#1631);
#1306=COLOUR_RGB('',0.811764717102051,0.811764717102051,0.811764717102051);
#1307=CARTESIAN_POINT('',(-1.35,6.5,1.45));
#1308=CARTESIAN_POINT('',(-2.55,6.5,1.45));
#1309=CARTESIAN_POINT('',(-0.975,6.5,1.45));
#1310=VECTOR('',#1632,1.0);
#1311=AXIS2_PLACEMENT_3D('',#1633,#1634,#1635);
#1312=COLOUR_RGB('',0.811764717102051,0.811764717102051,0.811764717102051);
#1313=CARTESIAN_POINT('',(-2.55,6.5,-1.45));
#1314=CARTESIAN_POINT('',(-2.55,6.5,0.0));
#1315=VECTOR('',#1636,1.0);
#1316=CARTESIAN_POINT('',(-1.35,6.5,-1.45));
#1317=CARTESIAN_POINT('',(-1.35,6.5,0.0));
#1318=VECTOR('',#1637,1.0);
#1319=AXIS2_PLACEMENT_3D('',#1638,#1639,#1640);
#1320=COLOUR_RGB('',0.811764717102051,0.811764717102051,0.811764717102051);
#1321=CARTESIAN_POINT('',(-0.975,6.5,-1.45));
#1322=VECTOR('',#1641,1.0);
#1323=COLOUR_RGB('',0.811764717102051,0.811764717102051,0.811764717102051);
#1324=CARTESIAN_POINT('',(5.53,0.0,0.2));
#1325=CARTESIAN_POINT('',(5.53,0.0,-0.2));
#1326=CARTESIAN_POINT('',(5.53,0.0,0.98659793814433));
#1327=VECTOR('',#1642,1.0);
#1328=CARTESIAN_POINT('',(5.53,-2.6,0.2));
#1329=CARTESIAN_POINT('',(5.53,0.5,0.2));
#1330=VECTOR('',#1643,1.0);
#1331=CARTESIAN_POINT('',(5.53,-2.6,6.0));
#1332=CARTESIAN_POINT('',(5.53,-2.6,0.2));
#1333=VECTOR('',#1644,1.0);
#1334=CARTESIAN_POINT('',(5.53,-3.0,6.0));
#1335=CARTESIAN_POINT('',(5.53,-2.6,6.0));
#1336=VECTOR('',#1645,1.0);
#1337=CARTESIAN_POINT('',(5.53,-3.0,-0.2));
#1338=CARTESIAN_POINT('',(5.53,-3.0,6.0));
#1339=VECTOR('',#1646,1.0);
#1340=CARTESIAN_POINT('',(5.53,-3.0,-0.2));
#1341=VECTOR('',#1647,1.0);
#1342=COLOUR_RGB('',0.811764717102051,0.811764717102051,0.811764717102051);
#1343=CARTESIAN_POINT('',(4.63,0.0,0.2));
#1344=CARTESIAN_POINT('',(2.765,0.0,0.2));
#1345=VECTOR('',#1648,1.0);
#1346=CARTESIAN_POINT('',(4.63,-2.6,0.2));
#1347=CARTESIAN_POINT('',(4.63,0.5,0.2));
#1348=VECTOR('',#1649,1.0);
#1349=CARTESIAN_POINT('',(5.53,-2.6,0.2));
#1350=VECTOR('',#1650,1.0);
#1351=COLOUR_RGB('',0.811764717102051,0.811764717102051,0.811764717102051);
#1352=CARTESIAN_POINT('',(4.63,-2.6,6.0));
#1353=CARTESIAN_POINT('',(4.63,-3.0,6.0));
#1354=CARTESIAN_POINT('',(4.63,-2.6,6.0));
#1355=VECTOR('',#1651,1.0);
#1356=CARTESIAN_POINT('',(5.53,-3.0,6.0));
#1357=VECTOR('',#1652,1.0);
#1358=CARTESIAN_POINT('',(5.53,-2.6,6.0));
#1359=VECTOR('',#1653,1.0);
#1360=COLOUR_RGB('',0.811764717102051,0.811764717102051,0.811764717102051);
#1361=CARTESIAN_POINT('',(4.63,-3.0,-0.2));
#1362=CARTESIAN_POINT('',(4.63,-3.0,6.0));
#1363=VECTOR('',#1654,1.0);
#1364=CARTESIAN_POINT('',(5.53,-3.0,-0.2));
#1365=VECTOR('',#1655,1.0);
#1366=COLOUR_RGB('',0.811764717102051,0.811764717102051,0.811764717102051);
#1367=CARTESIAN_POINT('',(4.63,0.0,-0.2));
#1368=CARTESIAN_POINT('',(2.765,0.0,-0.2));
#1369=VECTOR('',#1656,1.0);
#1370=CARTESIAN_POINT('',(4.63,-3.0,-0.2));
#1371=VECTOR('',#1657,1.0);
#1372=COLOUR_RGB('',0.811764717102051,0.811764717102051,0.811764717102051);
#1373=CARTESIAN_POINT('',(4.63,-2.6,0.2));
#1374=VECTOR('',#1658,1.0);
#1375=COLOUR_RGB('',0.811764717102051,0.811764717102051,0.811764717102051);
#1376=CARTESIAN_POINT('',(4.63,0.0,0.98659793814433));
#1377=VECTOR('',#1659,1.0);
#1378=COLOUR_RGB('',0.811764717102051,0.811764717102051,0.811764717102051);
#1379=CARTESIAN_POINT('',(0.45,0.0,0.2));
#1380=CARTESIAN_POINT('',(0.45,0.0,-0.2));
#1381=CARTESIAN_POINT('',(0.45,0.0,0.98659793814433));
#1382=VECTOR('',#1660,1.0);
#1383=CARTESIAN_POINT('',(0.45,-2.6,0.2));
#1384=CARTESIAN_POINT('',(0.45,0.5,0.2));
#1385=VECTOR('',#1661,1.0);
#1386=CARTESIAN_POINT('',(0.45,-2.6,6.0));
#1387=CARTESIAN_POINT('',(0.45,-2.6,0.2));
#1388=VECTOR('',#1662,1.0);
#1389=CARTESIAN_POINT('',(0.45,-3.0,6.0));
#1390=CARTESIAN_POINT('',(0.45,-2.6,6.0));
#1391=VECTOR('',#1663,1.0);
#1392=CARTESIAN_POINT('',(0.45,-3.0,-0.2));
#1393=CARTESIAN_POINT('',(0.45,-3.0,6.0));
#1394=VECTOR('',#1664,1.0);
#1395=CARTESIAN_POINT('',(0.45,-3.0,-0.2));
#1396=VECTOR('',#1665,1.0);
#1397=COLOUR_RGB('',0.811764717102051,0.811764717102051,0.811764717102051);
#1398=CARTESIAN_POINT('',(-0.45,0.0,0.2));
#1399=CARTESIAN_POINT('',(0.225,0.0,0.2));
#1400=VECTOR('',#1666,1.0);
#1401=CARTESIAN_POINT('',(-0.45,-2.6,0.2));
#1402=CARTESIAN_POINT('',(-0.45,0.5,0.2));
#1403=VECTOR('',#1667,1.0);
#1404=CARTESIAN_POINT('',(0.45,-2.6,0.2));
#1405=VECTOR('',#1668,1.0);
#1406=COLOUR_RGB('',0.811764717102051,0.811764717102051,0.811764717102051);
#1407=CARTESIAN_POINT('',(-0.449999999999999,-2.6,6.0));
#1408=CARTESIAN_POINT('',(-0.449999999999999,-3.0,6.0));
#1409=CARTESIAN_POINT('',(-0.449999999999999,-2.6,6.0));
#1410=VECTOR('',#1669,1.0);
#1411=CARTESIAN_POINT('',(0.45,-3.0,6.0));
#1412=VECTOR('',#1670,1.0);
#1413=CARTESIAN_POINT('',(0.45,-2.6,6.0));
#1414=VECTOR('',#1671,1.0);
#1415=COLOUR_RGB('',0.811764717102051,0.811764717102051,0.811764717102051);
#1416=CARTESIAN_POINT('',(-0.45,-3.0,-0.2));
#1417=CARTESIAN_POINT('',(-0.449999999999999,-3.0,6.0));
#1418=VECTOR('',#1672,1.0);
#1419=CARTESIAN_POINT('',(0.45,-3.0,-0.2));
#1420=VECTOR('',#1673,1.0);
#1421=COLOUR_RGB('',0.811764717102051,0.811764717102051,0.811764717102051);
#1422=CARTESIAN_POINT('',(-0.45,0.0,-0.2));
#1423=CARTESIAN_POINT('',(0.225,0.0,-0.2));
#1424=VECTOR('',#1674,1.0);
#1425=CARTESIAN_POINT('',(-0.45,-3.0,-0.2));
#1426=VECTOR('',#1675,1.0);
#1427=COLOUR_RGB('',0.811764717102051,0.811764717102051,0.811764717102051);
#1428=CARTESIAN_POINT('',(-0.45,-2.6,0.2));
#1429=VECTOR('',#1676,1.0);
#1430=COLOUR_RGB('',0.811764717102051,0.811764717102051,0.811764717102051);
#1431=CARTESIAN_POINT('',(-0.449999999999999,0.0,0.98659793814433));
#1432=VECTOR('',#1677,1.0);
#1433=COLOUR_RGB('',0.811764717102051,0.811764717102051,0.811764717102051);
#1434=CARTESIAN_POINT('',(-4.63,0.0,0.2));
#1435=CARTESIAN_POINT('',(-4.63,0.0,-0.2));
#1436=CARTESIAN_POINT('',(-4.63,0.0,0.98659793814433));
#1437=VECTOR('',#1678,1.0);
#1438=CARTESIAN_POINT('',(-4.63,-2.6,0.2));
#1439=CARTESIAN_POINT('',(-4.63,0.5,0.2));
#1440=VECTOR('',#1679,1.0);
#1441=CARTESIAN_POINT('',(-4.63,-2.6,6.0));
#1442=CARTESIAN_POINT('',(-4.63,-2.6,0.2));
#1443=VECTOR('',#1680,1.0);
#1444=CARTESIAN_POINT('',(-4.63,-3.0,6.0));
#1445=CARTESIAN_POINT('',(-4.63,-2.6,6.0));
#1446=VECTOR('',#1681,1.0);
#1447=CARTESIAN_POINT('',(-4.63,-3.0,-0.2));
#1448=CARTESIAN_POINT('',(-4.63,-3.0,6.0));
#1449=VECTOR('',#1682,1.0);
#1450=CARTESIAN_POINT('',(-4.63,-3.0,-0.2));
#1451=VECTOR('',#1683,1.0);
#1452=COLOUR_RGB('',0.811764717102051,0.811764717102051,0.811764717102051);
#1453=CARTESIAN_POINT('',(-5.53,0.0,0.2));
#1454=CARTESIAN_POINT('',(-2.315,0.0,0.2));
#1455=VECTOR('',#1684,1.0);
#1456=CARTESIAN_POINT('',(-5.53,-2.6,0.2));
#1457=CARTESIAN_POINT('',(-5.53,0.5,0.2));
#1458=VECTOR('',#1685,1.0);
#1459=CARTESIAN_POINT('',(-4.63,-2.6,0.2));
#1460=VECTOR('',#1686,1.0);
#1461=COLOUR_RGB('',0.811764717102051,0.811764717102051,0.811764717102051);
#1462=CARTESIAN_POINT('',(-5.53,-2.6,6.0));
#1463=CARTESIAN_POINT('',(-5.53,-3.0,6.0));
#1464=CARTESIAN_POINT('',(-5.53,-2.6,6.0));
#1465=VECTOR('',#1687,1.0);
#1466=CARTESIAN_POINT('',(-4.63,-3.0,6.0));
#1467=VECTOR('',#1688,1.0);
#1468=CARTESIAN_POINT('',(-4.63,-2.6,6.0));
#1469=VECTOR('',#1689,1.0);
#1470=COLOUR_RGB('',0.811764717102051,0.811764717102051,0.811764717102051);
#1471=CARTESIAN_POINT('',(-5.53,-3.0,-0.2));
#1472=CARTESIAN_POINT('',(-5.53,-3.0,6.0));
#1473=VECTOR('',#1690,1.0);
#1474=CARTESIAN_POINT('',(-4.63,-3.0,-0.2));
#1475=VECTOR('',#1691,1.0);
#1476=COLOUR_RGB('',0.811764717102051,0.811764717102051,0.811764717102051);
#1477=CARTESIAN_POINT('',(-5.53,0.0,-0.2));
#1478=CARTESIAN_POINT('',(-2.315,0.0,-0.2));
#1479=VECTOR('',#1692,1.0);
#1480=CARTESIAN_POINT('',(-5.53,-3.0,-0.2));
#1481=VECTOR('',#1693,1.0);
#1482=COLOUR_RGB('',0.811764717102051,0.811764717102051,0.811764717102051);
#1483=CARTESIAN_POINT('',(-5.53,-2.6,0.2));
#1484=VECTOR('',#1694,1.0);
#1485=COLOUR_RGB('',0.811764717102051,0.811764717102051,0.811764717102051);
#1486=CARTESIAN_POINT('',(-5.53,0.0,0.98659793814433));
#1487=VECTOR('',#1695,1.0);
#1488=COLOUR_RGB('',0.811764717102051,0.811764717102051,0.811764717102051);
#1489=CARTESIAN_POINT('',(-5.3000080715871,6.5,-1.5));
#1490=CARTESIAN_POINT('',(-5.0000040626254,6.5,-1.5));
#1491=CARTESIAN_POINT('',(0.15945017554528,6.5,-1.5));
#1492=VECTOR('',#1696,1.0);
#1493=CARTESIAN_POINT('',(-5.30001156808936,6.84999008416321,-1.5));
#1494=CARTESIAN_POINT('',(-5.30001156808936,6.84999008416321,-1.5));
#1495=VECTOR('',#1697,1.0);
#1496=CARTESIAN_POINT('',(6.62548245868447,11.5,-1.5));
#1497=CARTESIAN_POINT('',(-5.30001156808936,6.84999008416321,-1.5));
#1498=VECTOR('',#1698,1.0);
#1499=CARTESIAN_POINT('',(6.73446706608689,11.2204962337475,-1.5));
#1500=CARTESIAN_POINT('',(6.73446706608689,11.2204962337475,-1.5));
#1501=VECTOR('',#1699,1.0);
#1502=CARTESIAN_POINT('',(-5.00000479157131,6.64497002303335,-1.5));
#1503=CARTESIAN_POINT('',(-5.00000479157131,6.64497002303335,-1.5));
#1504=VECTOR('',#1700,1.0);
#1505=CARTESIAN_POINT('',(-5.00000479157131,6.64497002303335,-1.5));
#1506=VECTOR('',#1701,1.0);
#1507=COLOUR_RGB('',0.811764717102051,0.811764717102051,0.811764717102051);
#1508=CARTESIAN_POINT('',(-5.3000080715871,6.5,1.5));
#1509=CARTESIAN_POINT('',(-5.3000080715871,6.5,-0.75));
#1510=VECTOR('',#1702,1.0);
#1511=CARTESIAN_POINT('',(-5.30001156808936,6.84999008416321,1.5));
#1512=CARTESIAN_POINT('',(-5.30001156808936,6.84999008416321,1.5));
#1513=VECTOR('',#1703,1.0);
#1514=CARTESIAN_POINT('',(-5.30001156808936,6.84999008416321,-1.5));
#1515=VECTOR('',#1704,1.0);
#1516=COLOUR_RGB('',0.811764717102051,0.811764717102051,0.811764717102051);
#1517=CARTESIAN_POINT('',(-5.0000040626254,6.5,1.5));
#1518=CARTESIAN_POINT('',(-5.0000040626254,6.5,-0.75));
#1519=VECTOR('',#1705,1.0);
#1520=CARTESIAN_POINT('',(-5.00000479157131,6.64497002303335,1.5));
#1521=CARTESIAN_POINT('',(-5.00000479157131,6.64497002303335,-1.5));
#1522=VECTOR('',#1706,1.0);
#1523=CARTESIAN_POINT('',(-5.00000479157131,6.64497002303335,1.5));
#1524=VECTOR('',#1707,1.0);
#1525=COLOUR_RGB('',0.811764717102051,0.811764717102051,0.811764717102051);
#1526=CARTESIAN_POINT('',(6.62548245868447,11.5,1.5));
#1527=CARTESIAN_POINT('',(-5.30001156808936,6.84999008416321,1.5));
#1528=VECTOR('',#1708,1.0);
#1529=CARTESIAN_POINT('',(6.62548245868447,11.5,-1.5));
#1530=VECTOR('',#1709,1.0);
#1531=COLOUR_RGB('',0.811764717102051,0.811764717102051,0.811764717102051);
#1532=CARTESIAN_POINT('',(6.73446706608689,11.2204962337475,1.5));
#1533=CARTESIAN_POINT('',(6.73446706608689,11.2204962337475,1.5));
#1534=VECTOR('',#1710,1.0);
#1535=CARTESIAN_POINT('',(6.73446706608689,11.2204962337475,-1.5));
#1536=VECTOR('',#1711,1.0);
#1537=COLOUR_RGB('',0.811764717102051,0.811764717102051,0.811764717102051);
#1538=CARTESIAN_POINT('',(-5.00000479157131,6.64497002303335,1.5));
#1539=VECTOR('',#1712,1.0);
#1540=COLOUR_RGB('',0.811764717102051,0.811764717102051,0.811764717102051);
#1541=CARTESIAN_POINT('',(0.15945017554528,6.5,1.5));
#1542=VECTOR('',#1713,1.0);
#1543=COLOUR_RGB('',0.121568627655506,0.121568627655506,0.121568627655506);
#1544=CARTESIAN_POINT('',(-2.79174243050442,0.5,2.9));
#1545=CARTESIAN_POINT('',(-3.70825756949558,0.5,2.9));
#1546=CARTESIAN_POINT('',(-1.25,0.5,2.9));
#1547=VECTOR('',#1714,1.0);
#1548=CARTESIAN_POINT('',(-2.79174243050442,0.5,-2.9));
#1549=CARTESIAN_POINT('',(-2.79174243050442,0.5,0.0));
#1550=VECTOR('',#1715,1.0);
#1551=CARTESIAN_POINT('',(-3.70825756949558,0.5,-2.9));
#1552=CARTESIAN_POINT('',(-1.25,0.5,-2.9));
#1553=VECTOR('',#1716,1.0);
#1554=CARTESIAN_POINT('',(-3.70825756949558,0.5,0.0));
#1555=VECTOR('',#1717,1.0);
#1556=COLOUR_RGB('',0.121568627655506,0.121568627655506,0.121568627655506);
#1557=AXIS2_PLACEMENT_3D('',#1718,#1719,#1720);
#1558=AXIS2_PLACEMENT_3D('',#1721,#1722,#1723);
#1559=COLOUR_RGB('',0.121568627655506,0.121568627655506,0.121568627655506);
#1560=CARTESIAN_POINT('',(-1.25,2.5,2.9));
#1561=VECTOR('',#1724,1.0);
#1562=CARTESIAN_POINT('',(-1.25,2.5,-2.9));
#1563=VECTOR('',#1725,1.0);
#1564=COLOUR_RGB('',0.121568627655506,0.121568627655506,0.121568627655506);
#1565=AXIS2_PLACEMENT_3D('',#1726,#1727,#1728);
#1566=AXIS2_PLACEMENT_3D('',#1729,#1730,#1731);
#1567=COLOUR_RGB('',0.121568627655506,0.121568627655506,0.121568627655506);
#1568=AXIS2_PLACEMENT_3D('',#1732,#1733,#1734);
#1569=AXIS2_PLACEMENT_3D('',#1735,#1736,#1737);
#1570=COLOUR_RGB('',0.121568627655506,0.121568627655506,0.121568627655506);
#1571=CARTESIAN_POINT('',(6.4,0.0,2.9));
#1572=CARTESIAN_POINT('',(6.4,6.5,2.9));
#1573=CARTESIAN_POINT('',(6.4,3.25,2.9));
#1574=VECTOR('',#1738,1.0);
#1575=CARTESIAN_POINT('',(-6.4,6.5,2.9));
#1576=CARTESIAN_POINT('',(0.0,6.5,2.9));
#1577=VECTOR('',#1739,1.0);
#1578=CARTESIAN_POINT('',(-6.4,0.0,2.9));
#1579=CARTESIAN_POINT('',(-6.4,3.25,2.9));
#1580=VECTOR('',#1740,1.0);
#1581=CARTESIAN_POINT('',(0.0,0.0,2.9));
#1582=VECTOR('',#1741,1.0);
#1583=COLOUR_RGB('',0.121568627655506,0.121568627655506,0.121568627655506);
#1584=CARTESIAN_POINT('',(6.4,6.5,-2.9));
#1585=CARTESIAN_POINT('',(6.4,0.0,-2.9));
#1586=CARTESIAN_POINT('',(6.4,3.25,-2.9));
#1587=VECTOR('',#1742,1.0);
#1588=CARTESIAN_POINT('',(-6.4,0.0,-2.9));
#1589=CARTESIAN_POINT('',(0.0,0.0,-2.9));
#1590=VECTOR('',#1743,1.0);
#1591=CARTESIAN_POINT('',(-6.4,6.5,-2.9));
#1592=CARTESIAN_POINT('',(-6.4,3.25,-2.9));
#1593=VECTOR('',#1744,1.0);
#1594=CARTESIAN_POINT('',(0.0,6.5,-2.9));
#1595=VECTOR('',#1745,1.0);
#1596=COLOUR_RGB('',0.121568627655506,0.121568627655506,0.121568627655506);
#1597=CARTESIAN_POINT('',(-6.4,0.0,0.0));
#1598=VECTOR('',#1746,1.0);
#1599=CARTESIAN_POINT('',(6.4,0.0,0.0));
#1600=VECTOR('',#1747,1.0);
#1601=COLOUR_RGB('',0.121568627655506,0.121568627655506,0.121568627655506);
#1602=CARTESIAN_POINT('',(-6.4,6.5,0.0));
#1603=VECTOR('',#1748,1.0);
#1604=COLOUR_RGB('',0.121568627655506,0.121568627655506,0.121568627655506);
#1605=CARTESIAN_POINT('',(6.4,6.5,0.0));
#1606=VECTOR('',#1749,1.0);
#1607=COLOUR_RGB('',0.121568627655506,0.121568627655506,0.121568627655506);
#1608=DIRECTION('',(-0.0,0.0,-1.0));
#1609=CARTESIAN_POINT('',(3.25,1.5,2.9));
#1610=DIRECTION('',(0.0,0.0,-1.0));
#1611=DIRECTION('',(1.0,0.0,0.0));
#1612=DIRECTION('',(-0.0,0.0,1.0));
#1613=CARTESIAN_POINT('',(3.25,1.5,-2.9));
#1614=DIRECTION('',(0.0,0.0,1.0));
#1615=DIRECTION('',(1.0,0.0,0.0));
#1616=DIRECTION('',(-0.0,0.0,-1.0));
#1617=CARTESIAN_POINT('',(-3.25,1.5,2.9));
#1618=DIRECTION('',(0.0,0.0,-1.0));
#1619=DIRECTION('',(1.0,0.0,0.0));
#1620=DIRECTION('',(-0.0,-0.0,-1.0));
#1621=CARTESIAN_POINT('',(-3.25,1.5,-2.9));
#1622=DIRECTION('',(0.0,0.0,1.0));
#1623=DIRECTION('',(1.0,0.0,0.0));
#1624=DIRECTION('',(-0.0,0.0,1.0));
#1625=CARTESIAN_POINT('',(-3.25,1.5,-2.9));
#1626=DIRECTION('',(0.0,0.0,1.0));
#1627=DIRECTION('',(1.0,0.0,0.0));
#1628=DIRECTION('',(0.0,0.0,1.0));
#1629=CARTESIAN_POINT('',(-3.25,1.5,2.9));
#1630=DIRECTION('',(0.0,0.0,-1.0));
#1631=DIRECTION('',(1.0,0.0,0.0));
#1632=DIRECTION('',(-1.0,0.0,0.0));
#1633=CARTESIAN_POINT('',(-1.95,6.39,1.45));
#1634=DIRECTION('',(0.0,0.0,1.0));
#1635=DIRECTION('',(1.0,0.0,0.0));
#1636=DIRECTION('',(-0.0,-0.0,-1.0));
#1637=DIRECTION('',(0.0,0.0,1.0));
#1638=CARTESIAN_POINT('',(-1.95,6.39,-1.45));
#1639=DIRECTION('',(0.0,0.0,-1.0));
#1640=DIRECTION('',(1.0,0.0,0.0));
#1641=DIRECTION('',(1.0,0.0,0.0));
#1642=DIRECTION('',(-6.12323399573676E-17,0.0,-1.0));
#1643=DIRECTION('',(-5.48238336067295E-34,-1.0,-8.95341148891255E-18));
#1644=DIRECTION('',(6.12323399573676E-17,7.65671051465625E-17,1.0));
#1645=DIRECTION('',(0.0,-1.0,0.0));
#1646=DIRECTION('',(-6.12323399573676E-17,0.0,-1.0));
#1647=DIRECTION('',(0.0,1.0,0.0));
#1648=DIRECTION('',(1.0,0.0,-6.12323399573676E-17));
#1649=DIRECTION('',(-5.48238336067295E-34,-1.0,-8.95341148891255E-18));
#1650=DIRECTION('',(-1.0,0.0,6.12323399573676E-17));
#1651=DIRECTION('',(0.0,-1.0,0.0));
#1652=DIRECTION('',(-1.0,0.0,6.12323399573676E-17));
#1653=DIRECTION('',(-1.0,0.0,6.12323399573676E-17));
#1654=DIRECTION('',(-6.12323399573676E-17,0.0,-1.0));
#1655=DIRECTION('',(-1.0,0.0,6.12323399573676E-17));
#1656=DIRECTION('',(-1.0,0.0,6.12323399573676E-17));
#1657=DIRECTION('',(0.0,1.0,0.0));
#1658=DIRECTION('',(6.12323399573676E-17,7.65671051465625E-17,1.0));
#1659=DIRECTION('',(6.12323399573676E-17,-0.0,1.0));
#1660=DIRECTION('',(-6.12323399573676E-17,0.0,-1.0));
#1661=DIRECTION('',(-5.48238336067295E-34,-1.0,-8.95341148891255E-18));
#1662=DIRECTION('',(6.12323399573676E-17,7.65671051465625E-17,1.0));
#1663=DIRECTION('',(0.0,-1.0,0.0));
#1664=DIRECTION('',(-6.12323399573676E-17,0.0,-1.0));
#1665=DIRECTION('',(0.0,1.0,0.0));
#1666=DIRECTION('',(1.0,0.0,-6.12323399573676E-17));
#1667=DIRECTION('',(-5.48238336067295E-34,-1.0,-8.95341148891255E-18));
#1668=DIRECTION('',(-1.0,0.0,6.12323399573676E-17));
#1669=DIRECTION('',(0.0,-1.0,0.0));
#1670=DIRECTION('',(-1.0,0.0,6.12323399573676E-17));
#1671=DIRECTION('',(-1.0,0.0,6.12323399573676E-17));
#1672=DIRECTION('',(-6.12323399573676E-17,0.0,-1.0));
#1673=DIRECTION('',(-1.0,0.0,6.12323399573676E-17));
#1674=DIRECTION('',(-1.0,0.0,6.12323399573676E-17));
#1675=DIRECTION('',(0.0,1.0,0.0));
#1676=DIRECTION('',(6.12323399573676E-17,7.65671051465625E-17,1.0));
#1677=DIRECTION('',(6.12323399573676E-17,-0.0,1.0));
#1678=DIRECTION('',(-6.12323399573676E-17,0.0,-1.0));
#1679=DIRECTION('',(-5.48238336067295E-34,-1.0,-8.95341148891255E-18));
#1680=DIRECTION('',(6.12323399573676E-17,7.65671051465625E-17,1.0));
#1681=DIRECTION('',(0.0,-1.0,0.0));
#1682=DIRECTION('',(-6.12323399573676E-17,0.0,-1.0));
#1683=DIRECTION('',(0.0,1.0,0.0));
#1684=DIRECTION('',(1.0,0.0,-6.12323399573676E-17));
#1685=DIRECTION('',(-5.48238336067295E-34,-1.0,-8.95341148891255E-18));
#1686=DIRECTION('',(-1.0,0.0,6.12323399573676E-17));
#1687=DIRECTION('',(0.0,-1.0,0.0));
#1688=DIRECTION('',(-1.0,0.0,6.12323399573676E-17));
#1689=DIRECTION('',(-1.0,0.0,6.12323399573676E-17));
#1690=DIRECTION('',(-6.12323399573676E-17,0.0,-1.0));
#1691=DIRECTION('',(-1.0,0.0,6.12323399573676E-17));
#1692=DIRECTION('',(-1.0,0.0,6.12323399573676E-17));
#1693=DIRECTION('',(0.0,1.0,0.0));
#1694=DIRECTION('',(6.12323399573676E-17,7.65671051465625E-17,1.0));
#1695=DIRECTION('',(6.12323399573676E-17,-0.0,1.0));
#1696=DIRECTION('',(1.0,0.0,-0.0));
#1697=DIRECTION('',(9.99028949325345E-06,-0.999999999950097,0.0));
#1698=DIRECTION('',(0.931679220841709,0.363282024674751,0.0));
#1699=DIRECTION('',(-0.363282024674745,0.931679220841711,0.0));
#1700=DIRECTION('',(0.931679220841709,0.363282024674752,0.0));
#1701=DIRECTION('',(5.0282527014689E-06,-0.999999999987358,0.0));
#1702=DIRECTION('',(0.0,-0.0,-1.0));
#1703=DIRECTION('',(-9.99028949325345E-06,0.999999999950097,0.0));
#1704=DIRECTION('',(0.0,0.0,1.0));
#1705=DIRECTION('',(-0.0,0.0,1.0));
#1706=DIRECTION('',(0.0,0.0,1.0));
#1707=DIRECTION('',(5.0282527014689E-06,-0.999999999987358,0.0));
#1708=DIRECTION('',(0.931679220841709,0.363282024674751,0.0));
#1709=DIRECTION('',(0.0,0.0,1.0));
#1710=DIRECTION('',(0.363282024674745,-0.931679220841711,0.0));
#1711=DIRECTION('',(0.0,0.0,1.0));
#1712=DIRECTION('',(-0.931679220841709,-0.363282024674752,-0.0));
#1713=DIRECTION('',(-1.0,0.0,0.0));
#1714=DIRECTION('',(-1.0,0.0,0.0));
#1715=DIRECTION('',(0.0,0.0,1.0));
#1716=DIRECTION('',(1.0,0.0,0.0));
#1717=DIRECTION('',(-0.0,-0.0,-1.0));
#1718=CARTESIAN_POINT('',(-3.25,1.5,2.9));
#1719=DIRECTION('',(0.0,0.0,-1.0));
#1720=DIRECTION('',(1.0,0.0,0.0));
#1721=CARTESIAN_POINT('',(-3.25,1.5,-2.9));
#1722=DIRECTION('',(0.0,0.0,1.0));
#1723=DIRECTION('',(1.0,0.0,0.0));
#1724=DIRECTION('',(1.0,0.0,-0.0));
#1725=DIRECTION('',(-1.0,0.0,0.0));
#1726=CARTESIAN_POINT('',(-3.25,1.5,-2.9));
#1727=DIRECTION('',(0.0,0.0,1.0));
#1728=DIRECTION('',(1.0,0.0,0.0));
#1729=CARTESIAN_POINT('',(-3.25,1.5,2.9));
#1730=DIRECTION('',(0.0,0.0,-1.0));
#1731=DIRECTION('',(1.0,0.0,0.0));
#1732=CARTESIAN_POINT('',(3.25,1.5,-2.9));
#1733=DIRECTION('',(0.0,0.0,1.0));
#1734=DIRECTION('',(1.0,0.0,0.0));
#1735=CARTESIAN_POINT('',(3.25,1.5,2.9));
#1736=DIRECTION('',(0.0,0.0,-1.0));
#1737=DIRECTION('',(1.0,0.0,0.0));
#1738=DIRECTION('',(0.0,1.0,0.0));
#1739=DIRECTION('',(-1.0,0.0,0.0));
#1740=DIRECTION('',(0.0,-1.0,0.0));
#1741=DIRECTION('',(1.0,0.0,0.0));
#1742=DIRECTION('',(0.0,-1.0,0.0));
#1743=DIRECTION('',(-1.0,0.0,0.0));
#1744=DIRECTION('',(0.0,1.0,0.0));
#1745=DIRECTION('',(1.0,0.0,0.0));
#1746=DIRECTION('',(0.0,0.0,-1.0));
#1747=DIRECTION('',(0.0,0.0,-1.0));
#1748=DIRECTION('',(0.0,0.0,-1.0));
#1749=DIRECTION('',(0.0,0.0,-1.0));
ENDSEC;
END-ISO-10303-21;
